<?xml version="1.0" encoding="utf-8"?>
<!-- Generator: Adobe Illustrator 25.0.0, SVG Export Plug-In . SVG Version: 6.00 Build 0)  -->
<svg version="1.1" id="Layer_1" xmlns="http://www.w3.org/2000/svg" xmlns:xlink="http://www.w3.org/1999/xlink" x="0px" y="0px"
	 viewBox="0 0 24 24" style="enable-background:new 0 0 24 24;" xml:space="preserve">
<style type="text/css">
	.st0{display:none;fill:#FFFFFF;}
	.st1{fill:#FFFFFF;}
	.st2{opacity:0.3;fill:#3D3935;}
	.st3{fill:#CFCECC;}
	.st4{fill:#868381;}
</style>
<path class="st0" d="M22.39,8.7c0-2.48-2.02-4.49-4.51-4.49c-0.26,0-0.52,0.02-0.77,0.07C16.22,2.31,14.24,1,12,1
	S7.78,2.31,6.89,4.28C6.64,4.23,6.38,4.21,6.12,4.21c-2.48,0-4.51,2.01-4.51,4.49c0,1.69,0.93,3.2,2.39,3.97
	c-0.1,0.98-0.15,1.95-0.15,2.91c0,3.98,0.88,5.91,0.92,5.99c0.12,0.26,0.35,0.46,0.62,0.54C5.51,22.14,8.49,23,12,23
	s6.49-0.86,6.61-0.9c0.28-0.08,0.51-0.28,0.63-0.54c0.04-0.08,0.91-2.04,0.91-5.98c0-0.96-0.05-1.94-0.15-2.91
	C21.46,11.9,22.39,10.39,22.39,8.7z M12,21c-2.43,0-4.63-0.46-5.57-0.69c-0.15-0.48-0.37-1.37-0.49-2.69h12.12
	c-0.12,1.32-0.35,2.21-0.49,2.69C16.63,20.54,14.42,21,12,21L12,21z M18.62,11.08c-0.47,0.14-0.76,0.6-0.69,1.08
	c0.15,1.14,0.22,2.28,0.22,3.41c0,0.01,0,0.03,0,0.04H5.85c0-0.01,0-0.03,0-0.04c0-1.12,0.07-2.27,0.22-3.41
	c0.06-0.48-0.23-0.94-0.7-1.09C4.32,10.76,3.61,9.8,3.61,8.7c0-1.37,1.12-2.49,2.51-2.49c0.35,0,0.69,0.07,1,0.21
	C7.4,6.54,7.71,6.53,7.97,6.4C8.23,6.27,8.43,6.03,8.5,5.74C8.89,4.13,10.33,3,12,3s3.11,1.13,3.51,2.74
	c0.07,0.29,0.26,0.53,0.53,0.66c0.26,0.13,0.58,0.14,0.84,0.02c0.32-0.14,0.65-0.21,1-0.21c1.38,0,2.51,1.12,2.51,2.49
	C20.39,9.8,19.68,10.75,18.62,11.08L18.62,11.08z"/>
<g>
	<path id="XMLID_1_" class="st1" d="M19.29,2.56c-1.09,0-2.07,0.41-2.82,1.09C15.54,2.06,13.83,1,11.86,1
		C9.89,1,8.17,2.06,7.24,3.65C6.49,2.97,5.51,2.56,4.42,2.56c-2.33,0-4.21,1.89-4.21,4.21c0,2.33,1.89,4.21,4.21,4.21
		c0.05,0,0.06,0,0.09,0v7.8h14.13v-7.85c0.21,0.03,0.43,0.06,0.66,0.06c2.33,0,4.21-1.89,4.21-4.21
		C23.51,4.45,21.62,2.56,19.29,2.56z"/>
	<g>
		<path class="st2" d="M9.52,18.07c0.03,0.27-0.17,0.51-0.45,0.54l0,0c-0.27,0.03-0.51-0.17-0.54-0.45l-0.62-6.42
			c-0.03-0.27,0.17-0.52,0.45-0.54l0,0c0.27-0.03,0.52,0.17,0.54,0.45L9.52,18.07z"/>
		<path class="st2" d="M13.43,18.07c-0.03,0.27,0.17,0.51,0.45,0.54l0,0c0.27,0.03,0.52-0.17,0.54-0.45l0.62-6.42
			c0.03-0.27-0.17-0.52-0.45-0.54l0,0c-0.27-0.03-0.51,0.17-0.54,0.45L13.43,18.07z"/>
		<path class="st2" d="M11.94,17.08c0,0.35-0.23,0.64-0.51,0.64l0,0c-0.28,0-0.51-0.29-0.51-0.64v-5.23c0-0.35,0.23-0.64,0.51-0.64
			l0,0c0.28,0,0.51,0.29,0.51,0.64V17.08z"/>
	</g>
	<g>
		<path class="st3" d="M18.64,17.96c-0.07-0.49-3.2-0.88-7.06-0.88s-6.99,0.39-7.06,0.88h0v3.81h14.13L18.64,17.96L18.64,17.96z"/>
	</g>
	<ellipse class="st4" cx="11.57" cy="21.8" rx="7.07" ry="0.89"/>
</g>
</svg>
