<?xml version="1.0" encoding="utf-8"?>
<!-- Generator: Adobe Illustrator 25.0.0, SVG Export Plug-In . SVG Version: 6.00 Build 0)  -->
<svg version="1.1" xmlns="http://www.w3.org/2000/svg" xmlns:xlink="http://www.w3.org/1999/xlink" x="0px" y="0px"
	 viewBox="0 0 500 500" style="enable-background:new 0 0 500 500;" xml:space="preserve">
<style type="text/css">
	.st0{display:none;}
	.st1{display:inline;fill:#09AC72;}
	.st2{fill:#1D2433;}
	.st3{fill:#CF8F6E;}
	.st4{fill:#EEC08F;}
	.st5{display:none;fill:#00855C;}
	.st6{fill:#BBBBD6;}
	.st7{fill:#452F2D;}
	.st8{fill:#613E38;}
	.st9{fill:#E79B77;}
	.st10{fill:#D85F4D;}
	.st11{fill:#FFFFFF;}
	.st12{fill:#DBDEE0;}
	.st13{fill:#FFFFF0;}
	.st14{fill:#F2CFBD;}
	.st15{fill:#C49988;}
	.st16{fill:#D8ADA0;}
	.st17{fill:#CC4D3B;}
	.st18{fill:#132231;}
	.st19{fill:#263542;}
	.st20{fill:#FFCF9C;}
	.st21{fill:#FFE1C0;}
	.st22{fill:#DFDFEC;}
	.st23{fill:#FBFBFD;}
	.st24{fill:#B3372A;}
	.st25{fill:#C83B3B;}
	.st26{fill:#C93A3A;}
	.st27{display:inline;}
</style>
<g id="BACKGROUND" class="st0">
	<rect class="st1" width="500" height="500"/>
</g>
<g id="OBJECTS">
	<path class="st2" d="M431.36,40.75c-0.9-1.45-3.62-5.88-34.66-8.4c-47.51-3.86-130.33-1.14-201.41,6.6
		C144.01,44.54,54.75,57.67,32.97,82.77c-3.52,4.06-3.62,14.28-0.29,31.22c2.86,14.54,8.24,34,15.99,57.83
		c13.73,42.19,35.57,99.61,58.42,153.59c9.73,22.98,19.02,43.84,26.18,58.73c11.6,24.16,13.62,24.62,14.7,24.87
		c16.34,3.77,41.6,5.73,71.63,5.73c15.86,0,33.05-0.55,50.94-1.66c39.99-2.48,83.77-8.17,91.44-15.28
		c7.08-6.56,30.18-87.27,48.46-169.33C421.34,179.52,445.22,63.23,431.36,40.75z M195.61,41.93c70.9-7.73,153.49-10.44,200.84-6.6
		c9.69,0.79,16.49,1.74,21.28,2.71c-58.33-7.14-297.44,12.7-365.5,34.85C78.42,60.07,127.82,49.32,195.61,41.93z M92.12,281.17
		c-15.23-38-51.35-131.21-57.89-175.82c-1.53-10.45-1.06-15.87-0.06-18.67c3.31,30.54,72.85,227.21,102.04,296.65
		C125.41,360.85,109.2,323.8,92.12,281.17z M162.6,408.59c36.38,1.09,131.13-0.33,175.51-6.14
		C297.4,410.14,211.63,415.37,162.6,408.59z M407.51,227.83c-9.68,43.44-19.97,83.61-28.62,113.79
		c21.17-81.26,51.77-228.73,53.54-281.43C433.74,89.79,425.03,149.18,407.51,227.83z"/>
	<g>
		<path class="st3" d="M94.81,254.14c0,0,19.1,25.9,45.74,42.98v-35.51c-20.94-11.82-38.63-22.11-38.63-22.11s0.5-23.94-6.12-3.22
			c0,0-10.9-9.99-11.55-7.62c-0.66,2.36,8.55,12.16,8.55,12.16s-12.17-9.54-12.83-7.37c-0.66,2.17,10.85,12.12,10.85,12.12
			s-14.14-7.32-13.48-4.69c0.66,2.63,12.5,8.96,12.5,8.96L94.81,254.14z"/>
		<path class="st4" d="M101.92,239.5c0,0,0.5-23.94-6.12-3.22c0,0-10.9-9.99-11.55-7.62c-0.66,2.36,8.55,12.16,8.55,12.16
			s-12.17-9.54-12.83-7.37c-0.66,2.17,10.85,12.12,10.85,12.12s-13.07-6.77-13.49-4.95c8.04,8.73,22.94,7.77,32.79,14.84
			c4.93,3.54,9.32,9.35,15.37,8.86c3.58-0.29,6.65-2.96,8.22-6.19c0.05-0.11,0.09-0.22,0.14-0.32
			C115.98,247.67,101.92,239.5,101.92,239.5z"/>
		<ellipse class="st5" cx="261.5" cy="448.56" rx="84.35" ry="7.89"/>
		<g>
			<g>
				<path class="st6" d="M138.79,149.42c3.41,10.98,11.77,18.58,23.3,21.16c9.71,2.18,18.94-1.81,23.47-11.67
					c4.3,2.17,6.22,4.22,10.58,6.74c-0.78,1.48-1.5,2.99-2.2,4.5c2.04,2.65,3.74,7.38,6.32,9.16c6.41-8.11,11.79-19.58,22.77-22.43
					c7.64-1.98,26.07,4.54,31.04-5.14c0.83-3.35,0.53-6.25,0.15-9.5c-0.46-0.09-0.93-0.18-1.39-0.26
					c0.68-4.46-1.96-12.91-1.96-12.91c8.72,3.86,23.29,0.21,27.45-8.83c4.94-10.74,2.81-22.55-3.84-31.92
					c-11.84-16.67-39.4-20.88-50.46-0.93c0,0.01-0.01,0.01-0.01,0.02c-4.17-15.06-24.8-22.54-39.87-11.53
					c-9.63,7.03-15.55,22.86-10.57,34.14c-1.55-0.56-3.17-0.99-4.91-1.24C146.11,105.43,132.72,129.9,138.79,149.42z M228.28,142.42
					c-0.24,0.05-0.47,0.1-0.71,0.16c0.24-0.12,0.47-0.23,0.69-0.35C228.26,142.29,228.27,142.36,228.28,142.42z"/>
				<path class="st4" d="M214.9,200.68c0.09,8.3,0.18,16.59,0.26,24.89c8.29,2.8,16.92,4.61,25.64,5.28
					c2.42,0.19,7.89,1.3,9.17-1.61c0.81-1.84-1.02-3.93-0.6-5.99c0.39-1.93,1.75-3.37,3.67-3.84c2.35-0.58,4.89,0.3,7.34,0.44
					c3.28,0.19,7.38,1.15,10.58-0.2c5.56-2.36,3.19-12.63,2.35-17.01c-1.43-7.47-10.24-41.61-14.54-46.32
					c-2.83-3.09-10.51-2.92-14.7-2.94c-6.34-0.03-12.67,0.26-18.98,0.87c-3.55,0.34-7.24,0.85-10.19,2.85
					c-3.73,2.53-5.62,7.01-6.63,11.4C205.82,179.15,214.78,189.75,214.9,200.68z"/>
				<path class="st7" d="M237.53,176.98c2.27,0.75,4.23,2.41,5.35,4.52c-3.23-1.76-7.21-2.11-10.7-0.93
					c1.68-1.38,3.98-1.97,6.12-1.57c-2.01-1.15-6.49-2.53-9.37-0.92C231.15,176.16,234.26,175.89,237.53,176.98z"/>
				<path class="st3" d="M233.81,220.47c2.75-1.95-9.41-4.05-10.83-5.54c9.94,0.1,33.89,2.39,40.9,2.37
					c3.2-0.01,6.75,1.26,9.68-0.66c0.1-0.07,0.2-0.13,0.29-0.2c-0.54,1.44-1.45,2.6-2.89,3.21c-3.19,1.35-7.29,0.39-10.58,0.2
					c-2.44-0.14-4.99-1.02-7.34-0.44c-1.92,0.47-3.28,1.91-3.67,3.84c-0.42,2.06,1.41,4.15,0.6,5.99c-1.28,2.92-6.75,1.8-9.17,1.61
					c-8.72-0.67-17.36-2.48-25.64-5.28c-0.02-2.23-0.05-4.46-0.07-6.69C219.21,218.78,232.27,221.56,233.81,220.47z"/>
				<path class="st3" d="M214.9,157.1c2.95-2,6.64-2.5,10.19-2.85c6.31-0.61,12.64-0.9,18.98-0.87c4.19,0.02,11.87-0.15,14.7,2.94
					c1.21,1.33,2.79,5.01,4.46,9.78c-0.72,0.06-1.48,0.02-2.19-0.1c-3.27-0.57-5.71-2.58-8.51-4.1c-2.04-1.11-4.81-1.8-7.08-1.08
					c-2.27,0.72-3.83,1.37-6.22,1.36c-1.17,0-2.51-0.04-3.65-0.49c-1.05-0.42-1.94-1.34-3.04-1.62c-0.98,2.25-5,2.83-7.11,3.02
					c-2.61,0.24-5.58-0.92-8.06-1.52c0.81,3.74-0.57,7.94-4.79,8.32c-1.79,0.16-3.18-0.51-4.24-1.65
					C209.36,163.94,211.25,159.58,214.9,157.1z"/>
				<path class="st7" d="M231.73,156.3c1.75,4.5,9.24,4.25,13.06,3.42c6.88-1.49,5.47-1.85,11.66,1.87
					c6.81,4.09,21.99,5.52,21.43-6.32c-0.32-6.61-7.18-6.9-12.16-5.15c-0.59-14.22-16.05-18.15-27.76-13.98
					c-4.59,1.64-9.06,4.6-11.1,9.1C224.69,149.98,227.05,157.28,231.73,156.3z"/>
				<path class="st8" d="M274,156.79c2.32-4.09-4.52-5.61-5.7-2.74C267.13,156.89,272.29,159.81,274,156.79z"/>
				<path class="st8" d="M259.24,148.25c6.66-4.02-2.46-9.54-6.42-10.52c-4.34-1.07-11.62-1.52-15.45,1.37
					C225.86,147.77,253.47,154.48,259.24,148.25z"/>
				<path class="st7" d="M190.41,166.6c1.73-4.5,6.54-7.22,11.44-7.68c-1.01-2.32-1.29-5.1,0.27-7.22
					c2.47-3.35,7.12-2.38,10.49-1.62c0.35-4.51,2.57-9.77,7.99-9.61c2.29,0.07,5.41,0.98,6.88,2.82c1.69,2.11,2.17,6.8-0.6,8.32
					c-1.16,3.88-4.3,4.62-7.04,4.22c-3.31-0.48-3.53,0.16-5.19,3.07c-0.89,1.57-2.23,2.74-3.2,4.2c-0.83,1.25-0.58,2.5-0.47,4.02
					c0.28,3.79-0.71,9.11-4.42,11.02c1.12,3.9-2.14,7.31-5.91,7.78c-5.67,0.71-12.12-5.19-7.2-10.33c-0.14,0.15-2.6-1.76-2.8-2.01
					c-0.8-0.97-0.91-2.16-0.89-3.39C189.75,168.89,189.99,167.69,190.41,166.6z"/>
				<path class="st7" d="M231.58,154.38c0.88,2.18-0.14,4.81-2,6.24c-1.86,1.43-4.36,1.8-6.69,1.52c-2.33-0.29-4.54-1.17-6.71-2.05
					c0.31,1.94,0.62,3.95,0.16,5.86c-0.46,1.91-1.9,3.73-3.84,4.01c2.11,3.74,3.84,7.3,5.06,11.41c0.28,0.95,0.54,1.96,0.25,2.91
					c-0.54,1.77-2.63,2.47-4.44,2.9c-3.74-1.41-7.41-2.76-11.15-4.17c-1.65-0.62-3.4-1.31-4.43-2.74c-1.03-1.43-0.91-3.83,0.69-4.58
					c2.86-12.42,13.46-22.97,26.09-24.77c1.54-0.22,3.13-0.32,4.61,0.11C230.66,151.47,230.99,152.94,231.58,154.38z"/>
				<path class="st4" d="M213.55,189.3c-0.35-2.32-0.73-4.71-1.9-6.75c-1.17-2.04-3.35-3.67-5.69-3.52
					c-2.19,0.15-4.01,1.79-5.17,3.64c-2.78,4.41-2.59,10.51,0.46,14.74c3.05,4.23,8.76,6.35,13.83,5.12
					c2.52-0.61,2.6-3.59,2.34-6.17C217.15,193.77,215.98,190.23,213.55,189.3z"/>
				<path class="st3" d="M211,196.07c-1.01-0.21-2.06-0.46-2.81-1.16c-0.75-0.7-1.05-1.99-0.37-2.76c0.7-0.78,1.93-0.63,2.95-0.42
					c-1.58-0.32-2.77-2.57-3.26-3.9c-0.43-1.17-0.21-5.27-2.37-4.61c-2.05,0.62-2.27,3.78-2.33,5.53c-0.05,1.59,0.04,3.21,0.6,4.69
					c0.56,1.49,1.63,2.83,3.09,3.45C207.97,197.5,209.94,197.26,211,196.07z"/>
				<path class="st9" d="M224.26,192.09c-0.58,1.92,0.51,3.95,2.43,4.53c1.92,0.58,3.95-0.51,4.53-2.43
					c0.58-1.92-0.51-3.95-2.43-4.53C226.87,189.07,224.84,190.16,224.26,192.09z"/>
				<path class="st9" d="M262.79,196c-0.58,1.92,0.51,3.95,2.43,4.53c1.92,0.58,3.95-0.51,4.53-2.43c0.58-1.92-0.51-3.95-2.43-4.53
					C265.39,192.99,263.37,194.08,262.79,196z"/>
				<path class="st8" d="M220.86,158.69c-0.49-0.13-1-0.29-1.33-0.67c-0.38-0.44-0.42-1.12-0.2-1.66c1.29-3.25,6.92-3.62,8.95-0.97
					c0.94,1.23,0.64,2.39-0.63,3.24C225.64,159.97,222.99,159.27,220.86,158.69z"/>
				<path class="st8" d="M209.36,163.95c-0.39-1.54,1.42-3.28,2.91-3.13c1.87,0.19,2.8,2.63,1.57,4.05
					c-0.86,0.99-2.52,1.06-3.59,0.29C209.84,164.86,209.49,164.44,209.36,163.95z"/>
				<path class="st8" d="M215.07,179.66c-1.65-0.99-3.31-1.99-5.12-2.61c-1.82-0.63-3.82-0.86-5.66-0.3
					c-0.86,0.26-1.82,0.69-2.6,0.24c-0.58-0.34-0.82-1.07-0.8-1.74c0.07-1.63,1.61-3.05,3.24-2.98c-1.17-0.52-1.21-2.37-0.25-3.21
					c0.96-0.84,2.47-0.76,3.6-0.16c1.89,1.01,2.67,3.01,3.97,4.58C212.99,175.35,214.25,177.37,215.07,179.66z"/>
				<circle class="st7" cx="256.17" cy="178.52" r="2.35"/>
				<path class="st10" d="M247.79,174.83c0,0,5.36,18.2,12.88,19.89c-2.55,1.41-4.99,2.84-7.99,1.71
					C249.38,195.19,247.79,174.83,247.79,174.83z"/>
				<path class="st11" d="M256.64,200.87c-3.27,4.78-8.76,10.78-14.58,6.64c-4.8-3.41-4.9-10-4.35-16.47
					C240.14,197.48,249.48,203.96,256.64,200.87z"/>
				<path class="st12" d="M138.79,149.42c-6.07-19.52,7.31-43.99,29.88-40.67c1.73,0.25,3.35,0.69,4.91,1.24
					c-4.98-11.28,0.94-27.1,10.57-34.14c15.07-11.01,35.7-3.53,39.87,11.53c0-0.01,0.01-0.01,0.01-0.02
					c11.05-19.95,38.62-15.74,50.46,0.93c8.12,11.44-0.22,22.55-12.07,25.47c-3.14,0.77-6.66,0.79-9.83,0.53
					c-6.26-0.52-12.3-2.24-17.19-6.1c-3.08-2.43-9.04-5-10.05-9.07c1.86,8.39-4.83,18.1-12.13,21.72
					c-6.74,3.34-16.87,3.05-23.88,0.81c-3.69-1.18-7.64-3.31-10.42-5.94c7.91,11.14,2.05,25.1-7.41,32.81
					c-5.31,4.33-10,6.04-16.85,5.98c-5.46-0.05-10.5-0.98-15.03-2.69C139.33,151.03,139.05,150.23,138.79,149.42z"/>
				<path class="st8" d="M191.82,168.85c0.09,1.98,2.45,1.81,3.41,0.51c0.78-1.05,0.86-3.82-0.97-3.78
					C192.77,165.62,191.76,167.58,191.82,168.85z"/>
				<path class="st8" d="M216.4,143.09c-1.33,3.56,5.18,2.76,4.49-0.17C220.34,140.59,217.06,141.35,216.4,143.09z"/>
				<path class="st8" d="M202.36,152.79c-1.33,3.56,5.18,2.76,4.49-0.17C206.3,150.28,203.01,151.05,202.36,152.79z"/>
				<path class="st13" d="M238.45,93.11c5.1,5.9,14.35,6.97,21.51,4.94c6.05-1.71,9.44-9.22,6.23-14.74
					c-2.38-4.09-7.04-4.62-11.2-5.93c-7.34-2.31-19.22-1.28-24.47,5.07c-2.69,3.26-1.71,7.43,0.18,10.8
					c-2.64-5.91,8.01-11.34,12.37-11.8C236.75,83.34,234,87.96,238.45,93.11z"/>
				<path class="st13" d="M195.69,90.54c1.38,1.98,2.75,4,4.43,4.83c5.38,2.66,13.27-0.81,14.65-6.66
					c1.36-5.78-2.45-12.11-8.28-13.74c-9.45-2.64-22.58,2.2-25.47,12.18c-1.27,4.37-0.09,12.91,3.63,15.87
					c-1.62-4.46-2.65-11.61,1.51-15.42C190.64,83.5,193.19,86.95,195.69,90.54z"/>
				<path class="st13" d="M161.9,121.73c-3.46-9.9-13.83-5.65-17.28,1.54c-2.56,5.33-7.06,18.35,2.34,19.72
					c5.42,0.78,11.16-4.44,13.24-8.83c1.6-3.37,3.02-8.57,1.72-12.37C161.92,121.77,161.91,121.75,161.9,121.73z"/>
				<path class="st12" d="M197.34,144.07c-1.27,3.75-6.16,7.13-9.18,9.45c1.77,2.08,4.07,4.14,6.16,5.84
					c1.44-0.84,3.49-0.62,5.09-1.09C200.01,153.55,198.52,148.53,197.34,144.07z"/>
				<path class="st12" d="M200.72,141.5c1.35,1.29,1.68,5.71,3.16,6.34c0.41,0.17,4.82-0.72,5.11-0.9c-0.84-2.3-1.74-4.65-2.97-6.73
					C204.84,140.04,201.48,141.14,200.72,141.5z"/>
			</g>
			<path class="st7" d="M257.9,172.58c2.68,0.02,5.13-0.24,5.89-0.82c4.14-3.14-5.06-3.58-6.57-3.61c-1.97-0.03-6.87,0.24-8.01,2.31
				C248.48,171.78,253.5,172.55,257.9,172.58z"/>
			<path class="st7" d="M232.79,172.14c2.68,0.11,5.13-0.06,5.92-0.61c4.25-2.99-4.93-3.76-6.44-3.84c-1.97-0.1-6.88,0-8.09,2.02
				C223.41,171.01,228.4,171.96,232.79,172.14z"/>
		</g>
		<g>
			<g>
				<path class="st14" d="M384.32,66.51c-4.04-5.29-10.51-8.46-17.14-9.14c-4.89-0.51-9.97,0.23-14.65-1.28
					c-4.25-1.37-7.95-4.53-12.4-4.84c-4.31-0.3-8.45,2.25-11.07,5.7c-4.52,5.94-5.06,14.06-3.91,21.43
					c1.16,7.37,3.81,14.44,5.07,21.8c1.84,10.78,0.62,21.81,0,32.72c-0.29,5.13-0.38,10.58,2.2,15.03c2.74,4.73,8.16,7.47,13.6,8.07
					s10.91-0.68,16.09-2.45c4.36-1.49,8.75-3.44,11.76-6.92c2.79-3.23,4.12-7.44,5.25-11.56c2.7-9.8,4.72-19.79,6.06-29.87
					c0.67-5.09,1.04-10.19,1.49-15.3c0.28-3.17,1.4-6.16,1.66-9.32C388.73,75.57,387.38,70.52,384.32,66.51z"/>
				<g>
					<path class="st15" d="M336.71,152.23c7.33,3.92,17.22,2.96,25.11,1.05c1.45-0.35,3.25-0.9,5.08-1.64
						c-1.56,0.74-3.18,1.35-4.8,1.91c-5.18,1.77-10.65,3.05-16.09,2.45c-3.89-0.43-7.76-1.96-10.66-4.52
						C335.81,151.74,336.26,151.99,336.71,152.23z"/>
					<path class="st16" d="M375.52,144.35c0.37-1.67,0.03-3.68,0.3-5.32c0.33-2.02,0.57-4.07,1.11-6.03
						c1.44-5.19,0.78-10.43,2.01-15.71c1.08-4.63,2.52-9.12,2.57-13.9c0.05-4.91,0.82-8.95,2.03-13.57
						c1.03-3.91,2.24-8.5,2.51-12.62c0.45-6.96-4.63-14.13-11.2-17.87c3.71,1.57,7.04,3.98,9.48,7.17c3.06,4.01,4.4,9.07,4,14.07
						c-0.26,3.16-1.37,6.15-1.66,9.32c-0.45,5.11-0.82,10.21-1.49,15.3c-1.33,10.08-3.36,20.07-6.06,29.87
						C378.24,138.27,377.23,141.54,375.52,144.35z"/>
				</g>
				<path class="st17" d="M352.73,70.27c1.57-5.52,7.08-9.43,12.8-9.88c5.72-0.45,11.42,2.22,15.39,6.35
					c2.03,2.1,3.7,4.67,4.17,7.55c0.51,3.09-0.38,6.22-1.35,9.19c-2.35,7.21-5.22,14.24-8.57,21.04c1.17-0.68,2.34-1.36,3.51-2.04
					c-0.44,4.03-1.28,8.03-2.5,11.9c0.24-0.45,1.01-0.2,1.15,0.29c0.15,0.48-0.1,0.99-0.34,1.44c-1.36,2.54-2.72,5.08-4.08,7.62
					c0.96-0.59,1.92-1.19,2.88-1.78c-1.43,2.82,1.33,6.21,0.6,9.29c-0.72,3.07-4.59,4.62-5.28,7.69c1.05-0.37,2.09-0.73,3.14-1.1
					c-0.06,1.4-0.11,2.81-0.17,4.21c-1.57,0.86-3.14,1.71-4.7,2.57c1.45-0.28,2.9-0.56,4.35-0.84c-1.63,2.42-4.23,4.16-7.09,4.75
					c1.13,0.01,2.25,0.01,3.38,0.02c-1.09,0.51-2.19,1.02-3.28,1.53c-2.6-0.73-5.35-0.91-8.03-0.54c0.18-1.03,0.35-2.06,0.53-3.09
					c-3.31,2.36-7.36,3.66-11.43,3.69c-0.48-0.85,0.64-2.26,1.5-2.73c0.86-0.46,1.87-0.55,2.77-0.94c0.9-0.39,1.73-1.29,1.49-2.24
					c-0.82,1.49-2.86,2.16-4.4,1.44c-0.34,0.5-0.69,0.99-1.03,1.49c-0.92-1.1-1.18-2.71-0.66-4.04c-1.3,1.3-1.03,3.8,0.53,4.79
					c-1.06,1.79-3.22,2.85-5.28,2.6c-1.43-1.16-2.86-2.31-4.28-3.47c1.35,0.92,2.23,2.49,2.32,4.12c-2.37-0.07-4.1-2.17-5.5-4.08
					c-1.46-2-2.96-4.06-3.62-6.44c-0.56-2.04-0.48-4.19-0.4-6.3c0.18-4.57,0.36-9.14,0.54-13.71c0.28-0.48,0.57-0.96,0.85-1.44
					c0.94,3.54,1.27,7.23,0.99,10.88c1.42,0.71,2.43,2.21,2.55,3.8c0.12,1.59-0.64,3.22-1.94,4.14c-0.32-0.01-0.64-0.01-0.96-0.02
					c1.11,0.59,2.61-0.87,2.04-2c0.84,0.1,1.71-0.15,2.38-0.68c4.58,0.64,8.65-0.21,12.41-2.9c3.76-2.69,6.7-6.36,9.34-10.16
					c3.09-4.44,5.83-9.11,8.2-13.96c0.89,1.37,2.17,2.92,3.77,2.62c0.01,0.51,0.02,1.01,0.03,1.52c0.61,0.06,1.24-0.2,1.62-0.67
					c-0.6,1.13-1.19,2.26-1.79,3.39c1.68-0.82,2.63-2.89,2.15-4.7c-0.43,0.07-0.85,0.14-1.28,0.21c-0.12-0.49-0.25-0.99-0.37-1.48
					c-0.9,0.65-2.4-0.25-2.24-1.35c1.08-0.66,1.98-1.62,2.57-2.74c-1.96,0.87-4.46,0.33-5.89-1.27c-0.14,1.92-0.31,3.91-1.26,5.58
					c-0.96,1.67-2.95,2.91-4.79,2.36c-3.48-1.03-3.09-6.57-6.07-8.64c3.86,5.96,4.46,13.89,1.55,20.36
					c-2.92,6.47-9.26,11.27-16.27,12.33c0.77-0.89-0.23-2.56-1.38-2.3c-0.05-0.84-0.1-1.69-0.14-2.53
					c-1.03,0.61-2.03-1.25-1.28-2.17c0.76-0.92,2.14-0.93,3.33-0.83c1.19,0.1,2.55,0.16,3.39-0.69c-2.3,0.86-5.16-0.3-6.23-2.51
					c-1.06-2.21-0.18-5.17,1.93-6.43c-1.27,1.12-3.3-0.12-4.11-1.6c-0.81-1.48-1.21-3.33-2.6-4.29c0.29-0.92,0.3-1.57,0.59-2.49
					c-1.15-1.42-1.59-3.4-1.15-5.17c0.79-0.13,1.58-0.25,2.38-0.38c-0.24-2.04,1.99-3.56,4.03-3.77c2.04-0.21,4.11,0.37,6.13,0.08
					c1.59-0.23,3.07-0.99,4.66-1.26c1.59-0.27,3.5,0.13,4.23,1.57c-0.18-0.66-0.36-1.32-0.55-1.99c0.43-0.04,0.86-0.09,1.29-0.13
					c-1.44-0.47-2.87-0.95-4.31-1.42c1.53-2.58,5.6-3.11,7.75-1.02c0.89-0.01,1.78-0.02,2.67-0.02c0.03,1.01-0.47,2.02-1.29,2.61
					c2.14-1.62,3.45-4.27,3.44-6.95c-0.61,0.98-1.58,1.73-2.69,2.05c-0.07-0.45-0.14-0.9-0.21-1.35c-0.78,0.16-1.55,0.32-2.33,0.47
					c0.63-0.52,1.27-1.04,1.9-1.55c-4.32-1.29-9.23-0.43-12.86,2.25c-0.05-0.37-0.1-0.74-0.15-1.11c-1.07,0.68-2.35,1.03-3.61,1
					c1.68-2.34,3.35-4.69,5.03-7.03c-3.21,1.8-6.11,4.14-8.56,6.89c1.62-7.52,5.14-14.63,10.13-20.49
					c-4.58,4.74-9.17,9.49-13.75,14.23c0.34,4.47-0.28,9.01-1.79,13.23c-0.32,0.42-0.63,0.84-0.95,1.26
					c-1.02-3.38-2.03-6.77-3.05-10.15c0.68-0.26,1.37-0.52,2.05-0.78c-0.12-0.83-0.23-1.67-0.35-2.51c-0.39-0.2-0.79-0.4-1.18-0.6
					c-0.28,0.46-0.56,0.92-0.83,1.38c-0.46-0.08-0.73-0.69-0.47-1.08c-2.41-5.11-1.25-11.79,2.66-15.87
					c0.69-0.72,1.47-1.38,1.91-2.27c0.62-1.24,0.49-2.72,0.78-4.08c0.29-1.36,1.35-2.81,2.73-2.61c-1.1,3.03-1.3,6.37-0.58,9.51
					c-0.81,0.15-1.68-0.13-2.25-0.72c-0.17,1.43,0.43,2.92,1.54,3.84c0.69-0.91,1.38-1.83,2.07-2.74c0.24,0.65,0.48,1.31,0.72,1.96
					c1.17-0.17,2.27-0.75,3.08-1.62c-0.08,1.59-0.77,3.15-1.9,4.27c1.51-0.31,2.51-1.79,2.91-3.27c0.4-1.49,0.36-3.06,0.69-4.56
					c0.99-4.65,6.09-8.18,10.68-6.95c-0.88,2.25-1.76,4.49-2.65,6.74c0.67-1.09,1.35-2.17,2.02-3.26
					C352.17,67.56,352.48,69.1,352.73,70.27z"/>
				<path class="st10" d="M367.26,62.31c4.06-0.16,6.29,0.64,9.84,2.51c1.21,0.64,2.82,1.22,3.73,2.31c1.04,1.23,1.43,3.18,2.4,4.39
					c-0.52,0.39-0.82,0.97-1.37,1.3c0.62,0.15,1.23,0.51,1.86,0.67c-0.28,0.2-0.7,0.83-0.99,1.01c2.07-0.39,1.11,1.01,0.9,1.83
					c-0.28,1.1-0.47,2.29-0.73,3.43c-0.27,1.15-1.03,1.66-1.59,2.58c-0.94,1.57-1.21,3.33-1.91,5.06c-0.15-1.39-0.15-2.89-0.21-4.32
					c0.05,2.2-1.54,3.04-2.07,4.63c-0.72,2.15,1.31,3.57,1.35,5.41c0.03,1.56-1.47,2.17-2.24,3.24c-1.01,1.39-1.42,3.23-2.72,4.43
					c-0.21-1.19,0.06-2.38,0-3.56c-1.23,1.27-2.32,3.32-4.06,3.93c-0.02-0.69-0.01-1.42,0.3-2.06c-2.66,0.98-4.78,3.61-7.97,3.41
					c1.51-1.82,3.94-2.51,5.37-4.91c-1,0.5-2.02,1.28-3.11,1.41c0.66-0.68,1.39-1.46,1.54-2.36c-0.25,0.1-0.73,0.12-1.01,0.2
					c0.09-1.19,1.94-3.4,1.74-4.32c-0.33-1.57-2.59-0.76-3.19-1.7c-0.84-1.3,0.85-1.1,1.42-2.08c0.61-1.06,0.25-2.65,0.44-3.86
					c1.12,1.39,1.49,3.61,2.29,5.23c0.3-0.33,1.14-0.74,1.42-1.1c0.34,0.96,0.77,2.75,1.87,2.91c1.46,0.22,2.57-1.99,2.56-3.23
					c-0.02-2.05-0.53-1.04-2.11-1.94c-1.33-0.76-1.06-0.93-1.21-2.92c-0.66,0.17-1.4,0.34-2.08,0.47c-0.03-1.7,0.76-3.44,0.59-5.12
					c-0.72,0.07-1.47-0.05-2.1-0.36c1.28-2.03,1.75-2.39,0.32-4.41c-1.67-2.36-1.62-3.66-2.07-6.63c0.69,1.75,2.5,3.35,3.86,4.61
					c-0.88-2.54-1.97-4.44-1.93-6.69c0.04-2.31-0.62-1.39,1.28-0.59c2.32,0.98,6.65,2.93,9.16,2.55c-0.87-0.93-2.56-1.37-2.2-2.62
					c-2.8-0.65-5.3-1.32-7.91-2.24C366.82,62.49,367.05,62.48,367.26,62.31z"/>
				<path class="st10" d="M380.67,72.3c-1.03,0.06-1.94-1.09-1.64-2.08c0.1-0.34,0.32-0.65,0.33-1.01c0.02-0.66-0.63-1.11-1.22-1.41
					c-2.06-1.05-4.29-1.77-6.58-2.13c2.25,0.95,4.51,1.91,6.76,2.86c-0.44,0.49-0.87,0.97-1.31,1.46c1.02,0.88,1.82,2.01,2.31,3.26
					c-0.47-0.51-1.42-0.19-1.68,0.45c-0.57,1.4,1.09,2.68,2.02,3.41c-0.24-0.7-0.49-1.42-0.67-2.14
					C379.63,74.79,381.36,72.27,380.67,72.3z"/>
				<path class="st10" d="M347.8,101.42c0.41,0.62,0.96,1.15,1.29,1.82c0.33,0.67,0.4,1.55-0.1,2.09c-0.03-0.38-0.06-0.78-0.22-1.13
					c-0.16-0.35-0.48-0.65-0.86-0.68c-0.42-0.03-0.86,0.27-1.25,0.1c-0.46-0.19-0.47-0.86-0.29-1.33c0.18-0.47,0.49-0.94,0.37-1.43
					c-0.07-0.31-0.3-0.56-0.46-0.83c-0.38-0.62-0.06-1.31,0.59-0.86C347.26,99.45,347.48,100.95,347.8,101.42z"/>
				<g>
					<g>
						<path class="st14" d="M374.9,81.54c-1.14,0.35-2.02,1.17-2.6,2.14c-0.59,0.98-0.94,2.05-1.15,3.18
							c-0.23,1.13-0.35,2.3-0.62,3.48c-0.24,1.19-0.72,2.4-1.33,3.44c-1.23,2.08-2.52,4-3.82,5.98c-0.64,0.98-1.34,1.96-1.92,2.92
							c-0.56,0.97-1.01,2.01-0.91,3.09l0.04,0.48l-0.43-0.11c-0.93-0.23-2.11,0.34-2.48,1.37l-0.05-0.11l0.84,0.54l-0.93-0.38
							l-0.07-0.03l0.02-0.08c0.25-1.17,1.45-2.1,2.77-1.97l-0.38,0.38c-0.26-1.29,0.16-2.58,0.7-3.66c0.55-1.1,1.19-2.07,1.79-3.09
							c1.21-2.01,2.52-4.02,3.73-5.97c0.58-0.99,1.02-1.98,1.31-3.09c0.29-1.1,0.51-2.26,0.84-3.43c0.32-1.16,0.81-2.33,1.59-3.28
							C372.62,82.41,373.7,81.64,374.9,81.54z"/>
					</g>
					<g>
						<path class="st14" d="M364.25,78.27c-1.18-0.3-2.31-0.72-3.41-1.19l0.52-0.02c-0.66,0.5-1.32,0.98-2.01,1.43
							c-0.66,0.46-1.42,0.9-2.04,1.3c-0.54,0.33-0.79,0.92-0.99,1.73c-0.2,0.76-0.4,1.71-1.06,2.29c0.31-0.79,0.21-1.56,0.24-2.41
							c0.01-0.42,0.06-0.87,0.21-1.34c0.15-0.46,0.5-0.94,0.88-1.23c0.73-0.54,1.37-0.95,2.08-1.39c0.69-0.44,1.41-0.85,2.13-1.24
							l0.3-0.16l0.22,0.14C362.33,76.79,363.32,77.47,364.25,78.27z"/>
					</g>
					<g>
						<path class="st14" d="M355.78,82.77c-0.3-1.43,0.32-3.09,1.41-4.12c0.49-0.54,0.53-0.8,0.46-1.54
							c-0.05-0.76-0.01-1.47-0.03-2.16c0.01-0.69-0.04-1.36-0.21-1.93c-0.08-0.3-0.18-0.5-0.39-0.78c-0.2-0.27-0.46-0.62-0.6-1.05
							c-0.3-0.84-0.12-1.7,0.17-2.39c0.31-0.69,0.73-1.3,1.21-1.84c-0.24,0.69-0.49,1.36-0.61,2.03c-0.13,0.66-0.11,1.32,0.15,1.81
							c0.13,0.25,0.32,0.45,0.57,0.74c0.25,0.27,0.52,0.69,0.65,1.08c0.28,0.79,0.32,1.57,0.34,2.31c0,0.74-0.05,1.45-0.04,2.12
							c0,0.36,0.01,0.8-0.17,1.27c-0.18,0.48-0.52,0.79-0.8,1.03C356.79,80.18,356.05,81.32,355.78,82.77z"/>
					</g>
					<g>
						<path class="st14" d="M355.18,113.02c-1.89,0.61-3.46,1.8-4.77,3.19c-0.65,0.71-1.3,1.44-1.87,2.21
							c-0.58,0.76-1.11,1.56-1.62,2.4l-0.65-0.91c0.41-0.11,0.76-0.21,1-0.38c0.29-0.18,0.52-0.46,0.98-0.8
							c0.43-0.29,0.91-0.5,1.48-0.56c0.54-0.08,1.31,0.11,1.71,0.69c0.43,0.55,0.41,1.33,0.18,1.83c-0.22,0.53-0.55,0.93-0.96,1.27
							c-0.83,0.61-1.65,0.82-2.16,1.29c-0.49,0.43-0.71,1.13-0.73,1.92c-0.03,0.78,0.14,1.63,0.15,2.53
							c0.02,0.88-0.13,1.9-0.85,2.57c-0.34,0.32-0.77,0.54-1.22,0.6c-0.45,0.08-0.93-0.07-1.23-0.39c0.74,0.52,1.67,0.08,2.14-0.51
							c0.49-0.6,0.5-1.45,0.41-2.24c-0.1-0.8-0.34-1.64-0.38-2.56c-0.02-0.46,0-0.94,0.14-1.43c0.13-0.48,0.41-0.97,0.79-1.33
							c0.76-0.7,1.64-1,2.16-1.43c0.25-0.2,0.46-0.49,0.56-0.75c0.1-0.28,0.08-0.47-0.03-0.61c-0.14-0.28-0.91-0.24-1.47,0.15
							c-0.24,0.15-0.58,0.52-1.01,0.8c-0.47,0.31-0.97,0.41-1.39,0.5l-1.51,0.35l0.87-1.26c0.56-0.82,1.14-1.64,1.81-2.4
							c0.67-0.76,1.36-1.47,2.12-2.14C351.35,114.29,353.21,113.26,355.18,113.02z"/>
					</g>
					<g>
						<path class="st14" d="M355.13,113.16c-1.91,0.47-3.44,1.65-4.68,3.03c-1.25,1.42-2.17,3.01-3.3,4.71
							c-0.31,0.43-0.93,0.97-1.68,0.97c-0.74,0.01-1.29-0.33-1.72-0.66c-0.44-0.35-0.77-0.72-1.1-1.06
							c-0.34-0.34-0.67-0.7-1.01-1.05c-0.17-0.17-0.35-0.38-0.45-0.47c-0.16-0.09-0.06-0.07-0.09-0.09
							c-0.06,0.02-0.14,0.24-0.21,0.46c-0.06,0.22-0.11,0.44-0.14,0.67c-0.15,0.91-0.05,1.87,0.26,2.8
							c-0.57-0.8-0.87-1.81-0.89-2.84c0-0.26,0.02-0.52,0.05-0.77c0.05-0.25,0.04-0.53,0.31-0.88c0.14-0.17,0.41-0.31,0.66-0.29
							c0.25,0.01,0.43,0.11,0.57,0.2c0.29,0.19,0.43,0.35,0.62,0.51c0.73,0.6,1.47,1.37,2.14,1.86c0.34,0.25,0.69,0.4,0.94,0.38
							c0.25-0.01,0.46-0.16,0.71-0.5c1.03-1.51,2.12-3.28,3.61-4.63C351.2,114.13,353.14,113.1,355.13,113.16z"/>
					</g>
				</g>
				<path class="st10" d="M335.24,53.5c4.58-3.62,11.28,0.61,15.87,2.82c-2.86-0.05-5.71-1.61-8.34-2.45
					c0.92,1.29,2.55,2.37,4.1,2.84c-1.81-0.8-4.71-2.73-6.32-2.82c-2.02-0.12-3.36,1.57-4.91,2.15c-0.99,0.37-1.48-0.06-2.48,0.49
					c-0.49,0.27-1.38,1.16-1.61,1.6c-0.85,1.65-0.09,4.36-0.56,6.01c-0.35-1.14-0.39-2.59-0.77-3.58c-0.6,1.3-0.62,2.72-1.03,4.04
					c-0.26-0.82-0.23-1.76-0.25-2.67c-0.56,1.3-0.26,3.04-1.14,4.09c-0.17-0.02-0.23-0.18-0.39-0.22c-0.17,1.62,0.35,1.09,0.51,2.7
					c-3.52-4.07,0.34-7.49,2.36-10.7c-0.02,0.5,0.09,1.01,0.05,1.5C330.54,56.49,333.38,54.23,335.24,53.5z"/>
				<path class="st10" d="M371.22,59.37c-2.81-1.24-6.28-1.06-9.29-1.09c-3-0.03-6.1-1.01-8.9-0.73c1.08,0.84,2.38,1.14,3.61,1.3
					c-0.69,0.79-1.83,1.3-2.45,2.21c1.67,0.04,2.91-1.35,4.33-1.81c-0.61,0.69-1.25,1.46-1.75,2.15c2.72-1.6,4.55-2.07,7.71-2.2
					C366.96,59.1,369.39,58.45,371.22,59.37z"/>
				<path class="st10" d="M387.56,77.78c0.14,4.44-1.21,8.48-1.87,12.81c-0.64,4.2-0.29,8.44-1.2,12.56
					c-0.93,4.17-1.54,8.65-2.05,12.84c-0.52,4.29-1.29,8.01-2.32,12.16c-0.56,2.24-1.05,4.48-1.56,6.7
					c-0.51,2.18-1.95,4.34-2.21,6.68c-0.18-3.87,1.54-7.12,2.32-10.75c0.69-3.22,2.69-7.2,2.65-10.53
					c-0.47,0.75-1.15,1.42-1.84,1.93c0.19-1.46,1.05-3.88,1.88-5.14c-0.44,1.01-1.34,2.09-2.15,2.8c1.58-3.85,3.18-5.98,3.59-9.98
					c0.38-3.62,1.43-7.2,1.32-10.91c-0.4,0.67-0.9,1.3-1.42,1.87c-0.05-2.24,1.09-5.91,1.54-8.19c0.35-1.8,0.52-3.66,0.93-5.45
					C385.91,83.9,387.46,81.25,387.56,77.78z"/>
				<path class="st14" d="M372.75,60.38c-3.83-0.44-7.35-0.52-10.28,2.65c-2.7,2.93,0.55,8.59,1.39,11.97
					c-0.83-1.24-1.46-3.62-1.87-4.78c-0.52-1.49-1.07-3.23-1.04-4.89c0.05-3.14,3.18-5.62,6.29-6.03
					C369.07,59.07,370.64,60.8,372.75,60.38z"/>
				<path class="st14" d="M362.1,116.45c-0.54,1.01-0.99,2.14-1.34,3.21c1.17,0.5,2.32,0.8,1.8,2.3c3.72,0.57,1.39,3.19,4.21,4.6
					c1.12-1.22,0.89-1.94,2.14-0.64c0.89,0.92,0.42,2.73,2.58,1.96c0.37,0.69,0.51,1.63,0.98,2.18c0.62,0.73,1.55,0.19,1.75,1.51
					c-0.97-0.24-1.06-1.08-1.72-1.54c-0.58-0.4-1.11-0.47-1.83-0.81c-1.94-0.89-1.8-1.11-2.04-3.38c-0.86,0.61-1.65,1.89-2.83,2.19
					c-0.2-1.26-0.97-1.77-1.82-2.62c1.62-1.92-0.05-2.74-1.81-2.37c0.08-0.49-0.21-1.15-0.13-1.64c-0.77,0.14-1.52-0.1-2.08-0.56
					c-0.41,1.24-2.15,1.43-2.48,2.46c-0.42,1.31,1.49,3.15,1.14,4.94c-0.22,1.13-0.96,0.73-0.59,1.94c0.19,0.6,1.66,1.45,2.03,2.17
					c0.81,1.59,0.08,3.15,1.57,4.58c-0.53-0.66-2-1.38-2.22-2.25c-0.3-1.25,0.96-1.25,0.34-2.59c-0.35-0.77-1.98-1.29-2.44-2.05
					c-0.96-1.56-0.17-0.61,0.19-2.08c0.35-1.39,0.28-1.48-0.04-2.79c-0.44-1.82-0.76-0.65-0.11-2.41
					C358.07,120.87,359.62,117.56,362.1,116.45z"/>
				<path class="st14" d="M378.41,68.3c2.08,1.63,0.03,3.06,0.22,4.7c0.07,0.63,1.17,1.41,1.34,2.08c0.23,0.93-0.23,1.96-0.1,2.95
					c-0.71-1.35-0.88-2.82-1.49-4.12c-0.72-0.01-2.09,0.33-2.75,0.08c-0.84-0.31-0.83-1.26-1.55-1.61
					c-1.85-0.92-3.58,0.75-3.32-2.42c1.54,2.19,1.75,0.74,3.49,1.18c0.65,0.17,1.04,1.08,1.67,1.32c0.55,0.21,1.19,0.11,1.77,0.35
					c0.04-0.94,0.54-1.56,1.45-1.57C379.15,70.19,379.22,69,378.41,68.3z"/>
				<path class="st14" d="M354.81,133.81c1.52,0.28,3.02,1.07,3.77,2.42c-1.82-1.21-4.25-1.42-6.25-0.56
					c1.13,0.44,1.97,1.53,2.11,2.73c1.43-0.63,3.33,0.41,3.55,1.96c-1.42-0.68-2.9-1.25-4.4-1.72c0.14-0.94-0.87-1.85-1.8-1.62
					c-0.02,1.41-0.6,2.81-1.57,3.83c3.62,1.03,7.44,1.32,11.18,0.85c-2.12,0.56-4.31,0.82-6.5,0.77c-1.51-0.03-3.03-0.21-4.53-0.01
					c-3.74,0.49-7.2,3.26-10.9,2.53c5.14-0.13,9.98-3.85,11.43-8.78c-1.17,0.16-2.4-0.35-3.12-1.29c-0.17-0.05-0.35-0.09-0.52-0.14
					c1.03,0.27,2.29-0.78,3.27-0.98C351.86,133.54,353.49,133.57,354.81,133.81z"/>
			</g>
		</g>
		<path class="st12" d="M269.9,239.09c11.7,3.82,39.15,27.58,39.15,27.58s1.65-9.08,4.51,0c0-1.81,2.01-2.91,3.68-2.2
			c1.67,0.71,2.67,2.4,3.56,3.98c2.9,5.16,4.86,8.49,5.78,14.34s8.87,11.37,3.85,14.51c-15.43,9.69-20.68,5.04-26.46,3.31
			c-12.85-3.86-29.03-15.59-38.41-25.19c-3.57-3.65-0.03-3.71-1.75-8.52C260.63,258.02,265.8,247.58,269.9,239.09z"/>
		<g>
			<path class="st6" d="M251.6,290c0.59-4.89,1.31-9.75,2.28-14.52C253.79,280.35,252.93,285.28,251.6,290z"/>
		</g>
		<path class="st12" d="M273.13,241.8c-2.98-4.92-21.09-8.6-21.09-8.6l-39.81-5.76c0,0-12.01-1.65-19.14-0.59
			c-5.96,0.66-12.98,9.78-16.92,13.61c-7.54,7.33-15.49,14.39-22.83,21.81c-0.83-1.42-1.72-6.68-7.84,2.46c-2.68-0.83,0.88-0.8,0,0
			c-0.88,0.8-0.99,2.13-1.01,3.33c-0.1,7.82-16.72,20.18-11.61,26.09c20.34,23.52,51.42-13.47,60.03-24.56
			c0.94,23.49,2.73,41.46,2.73,41.46c37.42,16.65,59.93,8.7,59.93,8.7S277.21,248.55,273.13,241.8z"/>
		<path class="st13" d="M255.77,241.09c-3.12-1.9-7.02,1.55-10.63,0.99c-3.88-0.6-5.43-5.17-7.69-8.38
			c-0.17-0.24-0.36-0.46-0.54-0.69l-24.95-3.61c-0.07-0.01-6.83-0.93-13.05-0.93c-2.18,0-4.04,0.11-5.6,0.34
			c-3.96,0.44-9.28,6.17-12.8,9.97c-1.07,1.16-2.09,2.25-2.96,3.1c-3.12,3.03-6.35,6.05-9.47,8.98c-4.31,4.04-8.77,8.22-12.95,12.42
			c8.69,2.2,18.13,1.44,26.31-2.23c-5.03,0.41-10.14-0.22-14.92-1.84c8.72-6.95,18.64-12.38,29.19-15.97
			c2.99,14.38,11,27.67,22.33,37.03c-1.81-6.52-1.89-13.52-0.25-20.08c2.94,11.63,12.07,21.51,23.43,25.35
			c-1.1-2.72,3.6-4.67,5.76-2.68c2.16,1.98,2.1,5.35,1.84,8.28c-0.26,2.92-0.44,6.26,1.61,8.36c2.42-16.91,4.84-33.81,7.25-50.72
			C258.06,245.99,258.16,242.55,255.77,241.09z"/>
		<g>
			<path class="st6" d="M254.67,264.92c0.02-0.1,0.04-0.19,0.06-0.29c0.23-1.08,0.44-5.53,1.3-5.86c0.04,2.85-0.72,5.92-1.15,8.85
				C254.84,266.72,254.77,265.82,254.67,264.92z"/>
		</g>
		<path class="st18" d="M212.44,227.51c0.01-2.98-0.03-4.51-0.01-7.49c6.2,0.83,12.39,1.66,18.59,2.48c2.26,0.3,4.55,0.61,6.66,1.48
			c2.11,0.87,4.11,2.6,5.02,4.69c1.13-1.49,2.82-2.55,4.65-2.92c1.83-0.38,3.63-0.22,5.25,0.7c-0.17,2.81-0.39,4.27-0.56,7.09
			C244.95,235.98,231.23,234.08,212.44,227.51z"/>
		<path class="st19" d="M247.8,254.91c-0.33,1.5,0.63,2.98,2.13,3.31c1.5,0.33,2.98-0.63,3.31-2.13c0.33-1.5-0.63-2.98-2.13-3.31
			C249.61,252.45,248.12,253.41,247.8,254.91z"/>
		<path class="st19" d="M225.01,253.02c-0.33,1.5,0.63,2.98,2.13,3.31c1.5,0.33,2.98-0.63,3.31-2.13c0.33-1.5-0.63-2.98-2.13-3.31
			C226.82,250.57,225.34,251.52,225.01,253.02z"/>
		<path class="st19" d="M244.27,282.88c-0.33,1.5,0.63,2.98,2.13,3.31c1.5,0.33,2.98-0.63,3.31-2.13c0.33-1.5-0.63-2.98-2.13-3.31
			C246.08,280.43,244.6,281.38,244.27,282.88z"/>
		<path class="st19" d="M221.48,281c-0.33,1.5,0.63,2.98,2.13,3.31c1.5,0.33,2.98-0.63,3.31-2.13c0.33-1.5-0.63-2.98-2.13-3.31
			C223.29,278.55,221.81,279.5,221.48,281z"/>
		<g>
			<g>
				<path class="st18" d="M247.03,322.07l1.7,0.18c2.74-25.46,6.2-51.18,10.29-76.46c0.21-1.32,0.36-2.82-0.58-3.97
					c-0.93-1.14-2.5-1.3-3.44-1.4l-9.14-0.95c-1.64-0.17-3.5-0.36-4.84-1.35c-0.68-0.5-1.19-1.35-1.3-2.17
					c-0.05-0.4-0.04-0.97,0.34-1.46l-1.35-1.06c-0.58,0.74-0.83,1.72-0.69,2.74c0.17,1.27,0.93,2.54,1.98,3.31
					c1.72,1.27,3.92,1.49,5.68,1.68l9.14,0.95c0.92,0.1,1.85,0.23,2.3,0.78c0.49,0.6,0.37,1.62,0.21,2.61
					C253.24,270.83,249.77,296.58,247.03,322.07z"/>
			</g>
		</g>
		<path class="st19" d="M221.06,223.1c-2.18-0.16-4.42-0.33-6.37-1.31c-0.66,1.46,0.18,3.25,1.48,4.18c1.31,0.93,2.96,1.2,4.54,1.41
			c1.51,0.21,8.5,2.23,9.09-0.35C230.52,223.95,222.66,223.21,221.06,223.1z"/>
		<path class="st18" d="M314.55,418.93c-1.26,0.05-3.55-2.07-5.66-4.37c0.61-0.42,1.21-0.83,1.8-1.23l-31.27-49.01
			c6.01-4.15,10.81-8.9,13.19-13.8c-12.93,0-26.73-10.12-33.97-20.09c-0.79-1.09-1.59-2.94-2.55-4.51c0.43-0.08,0.85-0.17,1.26-0.27
			l0.21-6.64c0,0-34.4,1.51-63.8-9.14l-0.73,8.48c0,0,0.98,0.29,2.72,0.75c-1,2.68-1.2,5.7-0.79,8.56c0.6,4.2,2.35,8.15,4.08,12.03
			c6.32,14.19,12.63,28.38,18.95,42.57c-4.5,17.46-9.76,34.52-14.26,51.98h2.61l-6.1,14.96h22.58c0,0-7.04-5.12-9.97-7.01l2.81-7.95
			h0.98c6.64-16.18,12.41-33.21,19.06-49.39c0.9-2.19,1.8-4.41,2.59-6.65c6.5,0.15,14.27-1.43,21.93-4.17
			c12.81,15.8,25.58,31.58,38.67,47.47c1.08-0.73,2.22-1.51,3.37-2.32l9.53,12.65l15.73-16.21
			C327.53,415.63,317.29,418.83,314.55,418.93z"/>
		<path class="st6" d="M365.36,215.36c-1.57-7.77-4.38-14.86-12.42-5.3c-8.05,9.56-0.58,11.12,7.34,11.34
			c0,0,11.33,29.81,17.33,25.77c7.35-4.95,9.66-8.16,9.66-8.16s5.06-4.22,6.44-10.96C394.82,222.63,365.36,215.36,365.36,215.36z"/>
		<path class="st3" d="M364.37,216.35c-0.09-6.73,3.02-7.13,6.46-2.33c3.44,4.8,3.03-1.55,8.54,3.72c5.52,5.26,12.17,1.32,8.22,8.22
			c-3.95,6.91-7.56,7.89-6.58,0c0,0-6.17,6.77-5.74-5.01c0,0-5.44,7.64-5.77-2.22C369.51,218.72,364.5,225.49,364.37,216.35z"/>
		<path class="st3" d="M323.32,263.54c16.92-17.08,31.14-31.8,31.14-31.8s-9.53-8.1,3.58-11.21c13.11-3.12,13.65-0.76,4.23,6.12
			c0,0,19.81,6.03,2.34,18.46c0,0-7.55,21.41-28.53,45.1L323.32,263.54z"/>
		<path class="st18" d="M315,263.25c0,0,14.05,35.16,15.3,37.07c0.62,0.95,14.7-6.4,15.5-6.93c1.08-0.71-20.96-34.25-21.63-34.49
			C323.5,258.66,315.78,262.07,315,263.25z"/>
		<path class="st18" d="M148.31,259.96c0,0-14.05,35.16-15.3,37.07c-0.62,0.95-14.7-6.4-15.5-6.93
			c-1.08-0.71,20.96-34.25,21.63-34.49S147.53,258.77,148.31,259.96z"/>
		<g>
			<g>
				<g>
					<path class="st3" d="M232.96,40.99c5.06-1.5,3.34-4.88,3.34-4.88s0,0,8.74,0.15c8.74,0.15,11.72-3.14,10.22-8.18
						c-1.5-5.04-5.79-6.17-13.03-1.27c-7.24,4.9-7.24,4.9-7.24,4.9s-0.41-3.76-5.46-2.26c-5.06,1.5,0.09,6.26,0.09,6.26
						S227.9,42.49,232.96,40.99z"/>
					<path class="st4" d="M232.13,37.82c1.22,4.11-1.12,8.43-5.23,9.66l-11.48,3.41l-43.31,12.87l-5.39,1.6
						c-9.82,2.92-20.12-2.8-22.83-12.68l-0.63-2.3l85.09-25.29L232.13,37.82L232.13,37.82z"/>
					<path class="st20" d="M166,57.64c14.67-0.31,32.25-2.47,45.6-8.94c7.13-3.45,13.52-8.96,16.66-16.23
						c0.51-1.18,0.91-2.43,1.18-3.71l-1.09-3.68l-78.4,23.3c0.01,1.5,0.69,3.13,1.82,4.58C155.13,57.3,160.91,57.75,166,57.64z"/>
				</g>
			</g>
			<g>
				<path class="st3" d="M175.08,62.88c-5.71,1.58-11.59,2.74-17.35,1.62c-7.02-1.37-13.7-7.33-13.36-14.45l-1.53,0.46l1.28,4.32
					c-4.92,1.52-3.24,4.84-3.24,4.84s0,0-8.74-0.15c-8.74-0.15-11.72,3.14-10.22,8.18c1.5,5.04,5.79,6.17,13.03,1.27
					c7.24-4.9,7.24-4.9,7.24-4.9s0.41,3.7,5.36,2.29l1.28,4.32L175.08,62.88z"/>
				<path class="st3" d="M232.13,37.82c-2,3.93-5.41,7.14-9.23,9.43c-3.32,2-6.96,3.38-10.66,4.58l22.1-6.57L232.13,37.82z"/>
			</g>
			<path class="st21" d="M221.48,31.52c0.28,0.28,0.47,0.65,0.56,1.15c0.38,2.24-3.12,3.88-4.74,4.56
				c-6.3,2.66-12.64,5.22-19.09,7.5c-4.38,1.55-13.85,6.4-18.45,3.56c-6.1-3.77,7.63-8.17,10-9.06c7.81-2.94,15.83-5.33,23.98-7.11
				C215.49,31.74,219.87,29.92,221.48,31.52z"/>
			<path class="st4" d="M242.23,26.8c-1.67,1.13-2.95,1.99-3.93,2.66c2.13,6.66,12.39,4.57,16.08-0.63c0.27-0.38,0.51-0.8,0.72-1.23
				C253.46,22.97,249.23,22.07,242.23,26.8z"/>
			<circle class="st21" cx="249.24" cy="27.11" r="2.02"/>
		</g>
		<path class="st22" d="M356.01,208.18c0.68-0.52,1.42-0.98,2.26-1.15c0.83-0.17,1.78,0,2.38,0.6c0.74,0.75,0.79,1.92,0.91,2.96
			c0.23,2.03,0.92,4.02,2,5.76c-0.92-1.23-2.76-1.33-4.24-0.92c-1.48,0.41-2.85,1.22-4.38,1.42c-2.07,0.28-4.22-0.96-3.31-3.14
			C352.53,211.55,354.15,209.6,356.01,208.18z"/>
		<path class="st22" d="M391.58,228.46c0.05,1.07-0.36,2.1-0.82,3.06c-2.24,4.67-5.91,8.65-10.39,11.27
			c0.59-0.34,1.22-2.29,1.55-2.91c0.92-1.72,6.37-14.44,8.51-13.62C391.18,226.54,391.55,227.78,391.58,228.46z"/>
		<circle class="st23" cx="358.75" cy="208.56" r="1.27"/>
		<path class="st6" d="M355.51,209.84c0.17,0.17-0.12,0.73-0.65,1.26c-0.53,0.53-1.1,0.82-1.26,0.65c-0.17-0.17,0.12-0.73,0.65-1.26
			C354.78,209.97,355.34,209.67,355.51,209.84z"/>
		<g>
			<path class="st19" d="M111.4,117.53l6.35,9.68c0,0,9.37,29.52-26.64,49.34l-16.37-2.03L111.4,117.53z"/>
			<path class="st24" d="M104.92,114.9c18.75-2.9,6.88,57.07-25.37,60.02C53.9,177.27,77.9,119.07,104.92,114.9z"/>
			<path class="st17" d="M111.39,117.53c-1.47-2.05-3.61-3.08-6.47-2.63c-27.02,4.17-51.02,62.38-25.37,60.02
				C66.52,153.98,94.23,123.85,111.39,117.53z"/>
			<path class="st19" d="M88.1,172.67c0,0-27.19,40.35-19.49,46.57c7.7,6.22,24.96-46.57,24.96-46.57H88.1z M69.9,217.27
				c-1.96-1.78,1.23-7.76,2.63-6.93C73.67,211.01,72.04,219.21,69.9,217.27z"/>
		</g>
		<path class="st13" d="M310.06,271.48c-0.83-1.52,0.67-3.55,2.39-3.63c1.73-0.09,3.27,1.27,3.96,2.85
			c0.69,1.59,0.71,3.37,0.71,5.11c-7.1,1.11-14.63,1.98-21.24-0.82c-8.88-3.75-13.86-12.99-19.02-21.13
			c-4.66-7.35-10.3-13.46-18.68-16.33C277.47,242.98,296.31,257.18,310.06,271.48z"/>
		<path class="st19" d="M140.59,258.71c-0.29,1.56-0.58,3.11-0.87,4.67c1.54-1.02,3.07-2.05,4.61-3.07
			c-3.82,9.01-8.24,17.77-13.2,26.2c0.27-4.06,0.96-8.09,2.05-12c-1.75,1.39-2.75,2.66-4.71,2.51c1-3.49,3.25-6.89,5.31-9.9
			C135.18,265.03,140.18,260.9,140.59,258.71z"/>
		<path class="st19" d="M327.48,286.71c-0.6-4.21-1.2-8.41-1.8-12.62c2.62,1.86,5.24,3.73,7.85,5.59
			c-3.1-5.68-6.42-11.22-9.51-16.92c-2.08-0.69-4.31,1.25-4.68,3.41c-0.38,2.16,0.56,4.32,1.63,6.23
			C323.41,276.75,326.77,281.73,327.48,286.71z"/>
		<path class="st4" d="M340.66,265.18c2.91-0.38,5.05-2.82,6.91-5.1c4.17-5.12,8.41-10.38,10.59-16.61
			c2.18-6.23,1.92-13.74-2.35-18.78c3.23-1.54,6.47-3.08,9.7-4.61c-0.02-0.29-0.03-0.58-0.05-0.87c-1.74,0.12-4.2,0.55-7.43,1.32
			c-13.11,3.12-3.58,11.21-3.58,11.21s-10.38,10.74-23.95,24.52c0.25,0.59,0.5,1.17,0.78,1.74
			C333.14,261.78,336.49,265.72,340.66,265.18z"/>
		<path class="st19" d="M286.74,352.41c-19.33,18.69-34.14,21.64-56.48,19.87c9.88-6.24,17.35-16.2,20.59-27.43
			c0.09,4.51,0.18,9.02,0.27,13.53c-0.17-8.82,5.84-16.72,4.27-26.98C263.62,341.49,273.73,349.47,286.74,352.41z"/>
		<g>
			<circle class="st25" cx="352.42" cy="180.21" r="1.29"/>
			<path class="st25" d="M364.29,167.27c0,0.93-0.76,1.69-1.69,1.69c-0.93,0-1.69-0.76-1.69-1.69c0-0.93,0.76-1.69,1.69-1.69
				C363.54,165.59,364.29,166.34,364.29,167.27z"/>
			<path class="st25" d="M379.62,173.5c0,0.73-0.6,1.33-1.33,1.33c-0.73,0-1.33-0.6-1.33-1.33s0.6-1.33,1.33-1.33
				C379.02,172.17,379.62,172.77,379.62,173.5z"/>
			<path class="st25" d="M371.46,187.24c0,0.7-0.57,1.27-1.27,1.27c-0.7,0-1.27-0.57-1.27-1.27c0-0.7,0.57-1.27,1.27-1.27
				C370.89,185.97,371.46,186.54,371.46,187.24z"/>
			<path class="st26" d="M306.14,69.2c0,1.95-1.58,3.52-3.52,3.52c-1.95,0-3.52-1.58-3.52-3.52c0-1.95,1.58-3.52,3.52-3.52
				C304.56,65.68,306.14,67.25,306.14,69.2z"/>
			<path class="st25" d="M248.92,42.82c0,0.8-0.65,1.45-1.45,1.45c-0.8,0-1.45-0.65-1.45-1.45c0-0.8,0.65-1.45,1.45-1.45
				C248.27,41.37,248.92,42.02,248.92,42.82z"/>
			<path class="st25" d="M277.71,35.17c0,0.84-0.68,1.52-1.52,1.52c-0.84,0-1.52-0.68-1.52-1.52c0-0.84,0.68-1.52,1.52-1.52
				C277.03,33.65,277.71,34.33,277.71,35.17z"/>
			<circle class="st25" cx="285.7" cy="38.92" r="1.1"/>
			<circle class="st25" cx="289.64" cy="52.89" r="2.84"/>
			<circle class="st25" cx="299.82" cy="46.34" r="0.73"/>
			<path class="st25" d="M166.21,33.89c0,0.8-0.65,1.46-1.46,1.46s-1.46-0.65-1.46-1.46c0-0.8,0.65-1.46,1.46-1.46
				S166.21,33.08,166.21,33.89z"/>
			<circle class="st25" cx="161.63" cy="75.93" r="1.67"/>
			<path class="st25" d="M143.26,74.51c0,0.75-0.61,1.35-1.35,1.35s-1.35-0.61-1.35-1.35s0.61-1.35,1.35-1.35
				S143.26,73.77,143.26,74.51z"/>
			<path class="st25" d="M111.68,83.53c0,0.62-0.5,1.13-1.13,1.13s-1.13-0.5-1.13-1.13s0.5-1.13,1.13-1.13
				S111.68,82.91,111.68,83.53z"/>
			<circle class="st25" cx="126.04" cy="82.23" r="2.02"/>
			<path class="st25" d="M121.56,98.9c0,1.29-1.05,2.34-2.34,2.34c-1.29,0-2.34-1.05-2.34-2.34c0-1.29,1.05-2.34,2.34-2.34
				C120.51,96.56,121.56,97.61,121.56,98.9z"/>
			<path class="st25" d="M134.47,48.56c0,0.82-0.67,1.49-1.49,1.49s-1.49-0.67-1.49-1.49c0-0.82,0.67-1.49,1.49-1.49
				S134.47,47.73,134.47,48.56z"/>
			<path class="st25" d="M76.64,119.2c0,0.52-0.43,0.95-0.95,0.95c-0.52,0-0.95-0.43-0.95-0.95s0.43-0.95,0.95-0.95
				C76.22,118.25,76.64,118.68,76.64,119.2z"/>
			<path class="st25" d="M98.98,182.74c0,0.6-0.49,1.1-1.1,1.1c-0.6,0-1.1-0.49-1.1-1.1c0-0.6,0.49-1.1,1.1-1.1
				C98.49,181.64,98.98,182.13,98.98,182.74z"/>
			<circle class="st25" cx="66.86" cy="183.01" r="1.75"/>
			<path class="st25" d="M67.72,145.1c0,0.72-0.59,1.31-1.31,1.31c-0.72,0-1.31-0.59-1.31-1.31c0-0.72,0.58-1.31,1.31-1.31
				C67.14,143.8,67.72,144.38,67.72,145.1z"/>
			<path class="st25" d="M88.2,211.92c0,0.56-0.46,1.02-1.02,1.02c-0.56,0-1.02-0.46-1.02-1.02c0-0.56,0.46-1.02,1.02-1.02
				C87.74,210.9,88.2,211.36,88.2,211.92z"/>
			<path class="st25" d="M90.39,204.12c0,0.61-0.49,1.1-1.1,1.1c-0.61,0-1.1-0.49-1.1-1.1c0-0.61,0.49-1.1,1.1-1.1
				C89.9,203.02,90.39,203.51,90.39,204.12z"/>
		</g>
	</g>
</g>
<g id="DESIGNED_BY_FREEPIK" class="st0">
	<g class="st27">
		<g>
			<path class="st13" d="M179.48,475.35v-0.16c-0.22,0.25-0.44,0.46-0.65,0.62c-0.21,0.16-0.45,0.28-0.7,0.36
				c-0.25,0.08-0.52,0.12-0.82,0.12c-0.39,0-0.76-0.08-1.09-0.25c-0.33-0.17-0.62-0.4-0.87-0.71c-0.24-0.31-0.43-0.67-0.56-1.09
				c-0.13-0.42-0.19-0.87-0.19-1.35c0-1.03,0.25-1.82,0.75-2.4c0.5-0.57,1.16-0.86,1.98-0.86c0.47,0,0.87,0.08,1.2,0.24
				c0.32,0.16,0.64,0.41,0.95,0.75v-2.42c0-0.34,0.07-0.59,0.2-0.76c0.13-0.17,0.32-0.26,0.57-0.26c0.25,0,0.44,0.08,0.57,0.24
				c0.13,0.16,0.2,0.39,0.2,0.7v7.23c0,0.31-0.07,0.55-0.22,0.7c-0.15,0.15-0.33,0.23-0.56,0.23c-0.22,0-0.41-0.08-0.56-0.24
				C179.56,475.88,179.48,475.65,179.48,475.35z M176.26,472.94c0,0.44,0.07,0.82,0.21,1.14c0.14,0.31,0.33,0.55,0.57,0.71
				c0.24,0.16,0.5,0.24,0.79,0.24c0.29,0,0.55-0.08,0.79-0.23c0.24-0.15,0.43-0.38,0.57-0.69c0.14-0.31,0.21-0.7,0.21-1.16
				c0-0.44-0.07-0.81-0.21-1.13c-0.14-0.31-0.33-0.55-0.58-0.72c-0.24-0.17-0.51-0.25-0.8-0.25c-0.3,0-0.57,0.09-0.8,0.26
				c-0.24,0.17-0.42,0.41-0.55,0.73C176.32,472.15,176.26,472.52,176.26,472.94z"/>
			<path class="st13" d="M186.71,473.35h-3.21c0,0.37,0.08,0.7,0.23,0.98c0.15,0.28,0.34,0.5,0.58,0.64
				c0.24,0.14,0.51,0.22,0.8,0.22c0.2,0,0.38-0.02,0.54-0.07c0.16-0.05,0.32-0.12,0.47-0.22c0.15-0.1,0.29-0.2,0.42-0.32
				c0.13-0.11,0.29-0.26,0.5-0.46c0.08-0.07,0.2-0.11,0.36-0.11c0.17,0,0.3,0.05,0.41,0.14c0.1,0.09,0.16,0.22,0.16,0.39
				c0,0.15-0.06,0.32-0.17,0.52c-0.12,0.2-0.29,0.39-0.53,0.57c-0.23,0.18-0.53,0.33-0.88,0.45c-0.35,0.12-0.76,0.18-1.22,0.18
				c-1.05,0-1.87-0.3-2.46-0.9c-0.58-0.6-0.88-1.42-0.88-2.44c0-0.48,0.07-0.93,0.22-1.35c0.14-0.42,0.35-0.77,0.63-1.07
				c0.28-0.3,0.62-0.52,1.02-0.68c0.4-0.16,0.85-0.24,1.35-0.24c0.64,0,1.19,0.13,1.65,0.41c0.46,0.27,0.8,0.62,1.03,1.05
				c0.23,0.43,0.34,0.87,0.34,1.31c0,0.41-0.12,0.68-0.35,0.8C187.47,473.29,187.14,473.35,186.71,473.35z M183.51,472.42h2.97
				c-0.04-0.56-0.19-0.98-0.45-1.26c-0.26-0.28-0.61-0.42-1.04-0.42c-0.41,0-0.74,0.14-1.01,0.42
				C183.72,471.45,183.56,471.87,183.51,472.42z"/>
			<path class="st13" d="M194.18,474.14c0,0.45-0.11,0.84-0.33,1.16c-0.22,0.32-0.54,0.57-0.98,0.73c-0.43,0.17-0.95,0.25-1.57,0.25
				c-0.59,0-1.09-0.09-1.51-0.27c-0.42-0.18-0.73-0.41-0.93-0.67c-0.2-0.27-0.3-0.54-0.3-0.81c0-0.18,0.06-0.33,0.19-0.46
				c0.13-0.13,0.29-0.19,0.49-0.19c0.17,0,0.3,0.04,0.4,0.13c0.09,0.08,0.18,0.2,0.26,0.35c0.17,0.29,0.37,0.51,0.6,0.66
				c0.23,0.14,0.55,0.22,0.96,0.22c0.33,0,0.6-0.07,0.81-0.22c0.21-0.15,0.32-0.31,0.32-0.5c0-0.29-0.11-0.5-0.33-0.63
				c-0.22-0.13-0.58-0.26-1.08-0.38c-0.56-0.14-1.02-0.29-1.38-0.44c-0.35-0.15-0.64-0.36-0.85-0.61c-0.21-0.25-0.32-0.56-0.32-0.93
				c0-0.33,0.1-0.64,0.29-0.93c0.2-0.29,0.49-0.52,0.87-0.7c0.38-0.17,0.84-0.26,1.38-0.26c0.43,0,0.81,0.04,1.15,0.13
				c0.34,0.09,0.62,0.21,0.85,0.36c0.23,0.15,0.4,0.31,0.52,0.49c0.12,0.18,0.18,0.36,0.18,0.53c0,0.19-0.06,0.34-0.19,0.46
				c-0.13,0.12-0.31,0.18-0.54,0.18c-0.17,0-0.31-0.05-0.43-0.15c-0.12-0.1-0.25-0.24-0.41-0.43c-0.12-0.16-0.27-0.29-0.44-0.38
				c-0.17-0.1-0.4-0.14-0.69-0.14c-0.3,0-0.54,0.06-0.74,0.19c-0.2,0.13-0.29,0.28-0.29,0.47c0,0.17,0.07,0.31,0.22,0.42
				c0.14,0.11,0.34,0.2,0.58,0.27c0.24,0.07,0.58,0.16,1.01,0.26c0.51,0.13,0.92,0.27,1.25,0.45c0.32,0.17,0.57,0.38,0.73,0.61
				C194.1,473.57,194.18,473.84,194.18,474.14z"/>
			<path class="st13" d="M195.86,468.86c-0.23,0-0.42-0.07-0.59-0.21c-0.16-0.14-0.24-0.34-0.24-0.6c0-0.23,0.08-0.42,0.25-0.57
				c0.17-0.15,0.36-0.23,0.58-0.23c0.21,0,0.4,0.07,0.56,0.2c0.16,0.14,0.25,0.33,0.25,0.6c0,0.25-0.08,0.45-0.24,0.59
				C196.27,468.78,196.08,468.86,195.86,468.86z M196.67,470.55v4.74c0,0.33-0.08,0.58-0.23,0.75c-0.16,0.17-0.35,0.25-0.59,0.25
				c-0.24,0-0.44-0.09-0.59-0.26c-0.15-0.17-0.23-0.42-0.23-0.74v-4.69c0-0.32,0.08-0.57,0.23-0.73c0.15-0.16,0.34-0.25,0.59-0.25
				c0.24,0,0.44,0.08,0.59,0.25C196.59,470.03,196.67,470.26,196.67,470.55z"/>
			<path class="st13" d="M203.85,470.82v4.76c0,0.55-0.06,1.01-0.18,1.41c-0.12,0.39-0.3,0.72-0.56,0.97
				c-0.26,0.26-0.59,0.45-1.01,0.57c-0.41,0.12-0.93,0.19-1.55,0.19c-0.57,0-1.07-0.08-1.51-0.24c-0.44-0.16-0.79-0.36-1.03-0.61
				c-0.24-0.25-0.36-0.51-0.36-0.77c0-0.2,0.07-0.36,0.2-0.49c0.14-0.13,0.3-0.19,0.49-0.19c0.24,0,0.45,0.11,0.63,0.32
				c0.09,0.11,0.18,0.22,0.27,0.33c0.09,0.11,0.2,0.2,0.31,0.28c0.11,0.08,0.25,0.13,0.41,0.17c0.16,0.04,0.34,0.06,0.55,0.06
				c0.42,0,0.75-0.06,0.99-0.18c0.23-0.12,0.4-0.28,0.49-0.5c0.09-0.21,0.15-0.44,0.16-0.68c0.02-0.24,0.03-0.63,0.04-1.17
				c-0.25,0.35-0.54,0.62-0.87,0.81c-0.33,0.18-0.72,0.28-1.18,0.28c-0.55,0-1.03-0.14-1.44-0.42c-0.41-0.28-0.73-0.67-0.95-1.18
				c-0.22-0.51-0.33-1.09-0.33-1.75c0-0.49,0.07-0.94,0.2-1.33c0.13-0.4,0.33-0.73,0.57-1c0.25-0.27,0.53-0.48,0.86-0.62
				c0.32-0.14,0.68-0.21,1.07-0.21c0.46,0,0.87,0.09,1.21,0.27c0.34,0.18,0.66,0.46,0.95,0.84v-0.22c0-0.28,0.07-0.5,0.21-0.66
				c0.14-0.16,0.32-0.23,0.54-0.23c0.32,0,0.53,0.1,0.63,0.31C203.8,470.13,203.85,470.43,203.85,470.82z M199.1,472.9
				c0,0.66,0.14,1.17,0.44,1.51c0.29,0.34,0.67,0.51,1.13,0.51c0.27,0,0.53-0.07,0.77-0.22c0.24-0.15,0.44-0.37,0.59-0.66
				c0.15-0.29,0.23-0.65,0.23-1.07c0-0.67-0.15-1.19-0.44-1.56c-0.29-0.37-0.68-0.56-1.16-0.56c-0.47,0-0.84,0.18-1.13,0.53
				C199.24,471.73,199.1,472.24,199.1,472.9z"/>
			<path class="st13" d="M206.46,470.52v0.2c0.29-0.38,0.6-0.66,0.95-0.84c0.34-0.18,0.73-0.27,1.18-0.27
				c0.43,0,0.82,0.09,1.16,0.28c0.34,0.19,0.6,0.46,0.76,0.8c0.11,0.2,0.18,0.42,0.21,0.65c0.03,0.23,0.05,0.53,0.05,0.89v3.05
				c0,0.33-0.08,0.58-0.23,0.75c-0.15,0.17-0.34,0.25-0.59,0.25c-0.24,0-0.44-0.09-0.59-0.26c-0.15-0.17-0.23-0.42-0.23-0.74v-2.73
				c0-0.54-0.08-0.95-0.23-1.24c-0.15-0.29-0.45-0.43-0.9-0.43c-0.29,0-0.56,0.09-0.8,0.26c-0.24,0.17-0.42,0.41-0.53,0.72
				c-0.08,0.24-0.12,0.7-0.12,1.37v2.05c0,0.33-0.08,0.58-0.23,0.75c-0.15,0.17-0.35,0.25-0.6,0.25c-0.24,0-0.43-0.09-0.58-0.26
				c-0.15-0.17-0.23-0.42-0.23-0.74v-4.74c0-0.31,0.07-0.55,0.21-0.7c0.14-0.15,0.32-0.23,0.56-0.23c0.15,0,0.28,0.03,0.39,0.1
				c0.12,0.07,0.21,0.17,0.28,0.31C206.43,470.16,206.46,470.33,206.46,470.52z"/>
			<path class="st13" d="M216.44,473.35h-3.21c0,0.37,0.08,0.7,0.23,0.98c0.15,0.28,0.34,0.5,0.58,0.64
				c0.24,0.14,0.51,0.22,0.8,0.22c0.2,0,0.38-0.02,0.54-0.07c0.16-0.05,0.32-0.12,0.47-0.22c0.15-0.1,0.29-0.2,0.42-0.32
				c0.13-0.11,0.29-0.26,0.5-0.46c0.08-0.07,0.2-0.11,0.36-0.11c0.17,0,0.31,0.05,0.41,0.14c0.1,0.09,0.16,0.22,0.16,0.39
				c0,0.15-0.06,0.32-0.17,0.52c-0.12,0.2-0.29,0.39-0.53,0.57c-0.23,0.18-0.53,0.33-0.88,0.45c-0.35,0.12-0.76,0.18-1.22,0.18
				c-1.05,0-1.87-0.3-2.46-0.9c-0.58-0.6-0.88-1.42-0.88-2.44c0-0.48,0.07-0.93,0.22-1.35c0.14-0.42,0.35-0.77,0.63-1.07
				c0.28-0.3,0.62-0.52,1.02-0.68c0.4-0.16,0.85-0.24,1.35-0.24c0.64,0,1.19,0.13,1.65,0.41c0.46,0.27,0.8,0.62,1.03,1.05
				c0.23,0.43,0.34,0.87,0.34,1.31c0,0.41-0.12,0.68-0.35,0.8C217.2,473.29,216.87,473.35,216.44,473.35z M213.23,472.42h2.97
				c-0.04-0.56-0.19-0.98-0.45-1.26c-0.26-0.28-0.61-0.42-1.04-0.42c-0.41,0-0.74,0.14-1.01,0.42
				C213.44,471.45,213.28,471.87,213.23,472.42z"/>
			<path class="st13" d="M223.12,475.35v-0.16c-0.22,0.25-0.44,0.46-0.65,0.62c-0.21,0.16-0.45,0.28-0.7,0.36
				c-0.25,0.08-0.52,0.12-0.82,0.12c-0.39,0-0.76-0.08-1.09-0.25c-0.33-0.17-0.62-0.4-0.87-0.71c-0.24-0.31-0.43-0.67-0.56-1.09
				c-0.13-0.42-0.19-0.87-0.19-1.35c0-1.03,0.25-1.82,0.75-2.4c0.5-0.57,1.16-0.86,1.98-0.86c0.47,0,0.87,0.08,1.2,0.24
				c0.32,0.16,0.64,0.41,0.95,0.75v-2.42c0-0.34,0.07-0.59,0.2-0.76c0.13-0.17,0.33-0.26,0.57-0.26c0.25,0,0.44,0.08,0.57,0.24
				c0.13,0.16,0.2,0.39,0.2,0.7v7.23c0,0.31-0.07,0.55-0.22,0.7c-0.14,0.15-0.33,0.23-0.56,0.23c-0.22,0-0.41-0.08-0.56-0.24
				C223.19,475.88,223.12,475.65,223.12,475.35z M219.9,472.94c0,0.44,0.07,0.82,0.21,1.14c0.14,0.31,0.33,0.55,0.57,0.71
				c0.24,0.16,0.5,0.24,0.79,0.24c0.29,0,0.55-0.08,0.79-0.23c0.24-0.15,0.43-0.38,0.57-0.69c0.14-0.31,0.21-0.7,0.21-1.16
				c0-0.44-0.07-0.81-0.21-1.13c-0.14-0.31-0.34-0.55-0.58-0.72c-0.24-0.17-0.51-0.25-0.8-0.25c-0.3,0-0.57,0.09-0.81,0.26
				c-0.24,0.17-0.42,0.41-0.55,0.73C219.96,472.15,219.9,472.52,219.9,472.94z"/>
			<path class="st13" d="M229.82,468.12v2.5c0.31-0.32,0.62-0.57,0.94-0.74c0.32-0.17,0.72-0.25,1.19-0.25
				c0.55,0,1.02,0.13,1.43,0.39c0.41,0.26,0.73,0.63,0.95,1.12c0.23,0.49,0.34,1.07,0.34,1.74c0,0.5-0.06,0.95-0.19,1.37
				c-0.13,0.41-0.31,0.77-0.55,1.08c-0.24,0.3-0.53,0.54-0.88,0.71c-0.34,0.17-0.72,0.25-1.13,0.25c-0.25,0-0.49-0.03-0.71-0.09
				c-0.22-0.06-0.41-0.14-0.57-0.24c-0.16-0.1-0.29-0.2-0.4-0.3c-0.11-0.1-0.26-0.26-0.44-0.47v0.16c0,0.31-0.07,0.54-0.22,0.7
				c-0.15,0.16-0.34,0.24-0.56,0.24c-0.23,0-0.42-0.08-0.56-0.24c-0.14-0.16-0.21-0.39-0.21-0.7v-7.16c0-0.33,0.07-0.58,0.2-0.75
				c0.13-0.17,0.32-0.25,0.56-0.25c0.25,0,0.45,0.08,0.58,0.24C229.75,467.58,229.82,467.81,229.82,468.12z M229.9,472.99
				c0,0.65,0.15,1.15,0.45,1.5c0.3,0.35,0.69,0.53,1.17,0.53c0.41,0,0.77-0.18,1.07-0.54c0.3-0.36,0.45-0.87,0.45-1.54
				c0-0.43-0.06-0.81-0.19-1.12c-0.12-0.31-0.3-0.55-0.53-0.72c-0.23-0.17-0.49-0.26-0.8-0.26c-0.31,0-0.59,0.09-0.83,0.26
				c-0.24,0.17-0.44,0.42-0.58,0.74C229.97,472.16,229.9,472.54,229.9,472.99z"/>
			<path class="st13" d="M236.81,476.49l0.15-0.37l-2.02-5.08c-0.12-0.29-0.19-0.5-0.19-0.64c0-0.14,0.04-0.27,0.11-0.39
				c0.07-0.12,0.17-0.22,0.3-0.29c0.13-0.07,0.26-0.11,0.39-0.11c0.24,0,0.41,0.08,0.53,0.22c0.12,0.15,0.23,0.37,0.32,0.65
				l1.39,4.04l1.31-3.76c0.1-0.3,0.2-0.54,0.28-0.71c0.08-0.17,0.17-0.29,0.27-0.35c0.09-0.06,0.23-0.09,0.4-0.09
				c0.12,0,0.24,0.03,0.36,0.1c0.11,0.07,0.2,0.15,0.26,0.27c0.06,0.11,0.09,0.23,0.09,0.35c-0.02,0.08-0.04,0.18-0.08,0.32
				c-0.04,0.14-0.08,0.28-0.13,0.43l-2.14,5.6c-0.18,0.49-0.36,0.88-0.54,1.16c-0.18,0.28-0.41,0.5-0.7,0.65
				c-0.29,0.15-0.68,0.23-1.17,0.23c-0.48,0-0.84-0.05-1.08-0.16c-0.24-0.11-0.36-0.3-0.36-0.57c0-0.19,0.06-0.33,0.17-0.44
				c0.11-0.1,0.28-0.15,0.51-0.15c0.09,0,0.18,0.01,0.26,0.04c0.1,0.02,0.19,0.04,0.27,0.04c0.19,0,0.34-0.03,0.45-0.08
				c0.11-0.06,0.2-0.15,0.29-0.29C236.6,476.96,236.7,476.76,236.81,476.49z"/>
		</g>
		<g>
			<path class="st13" d="M260.56,469.76h0.39v-0.49c0-0.51,0.06-0.92,0.19-1.22c0.13-0.3,0.35-0.52,0.66-0.66
				c0.31-0.14,0.74-0.21,1.27-0.21c0.96,0,1.44,0.23,1.44,0.7c0,0.15-0.05,0.28-0.15,0.39c-0.1,0.11-0.22,0.16-0.35,0.16
				c-0.06,0-0.18-0.01-0.33-0.04c-0.15-0.02-0.29-0.04-0.39-0.04c-0.3,0-0.49,0.09-0.57,0.26c-0.08,0.17-0.12,0.42-0.12,0.75v0.39
				h0.4c0.63,0,0.94,0.19,0.94,0.57c0,0.26-0.08,0.44-0.25,0.51c-0.17,0.07-0.39,0.11-0.69,0.11h-0.4v4.35
				c0,0.32-0.08,0.57-0.23,0.74c-0.15,0.17-0.35,0.26-0.6,0.26c-0.23,0-0.42-0.08-0.58-0.26c-0.15-0.17-0.23-0.42-0.23-0.74v-4.35
				h-0.45c-0.24,0-0.43-0.05-0.56-0.16c-0.13-0.11-0.2-0.25-0.2-0.43C259.74,469.95,260.01,469.76,260.56,469.76"/>
			<path class="st13" d="M265.93,473.92v1.37c0,0.33-0.08,0.58-0.24,0.75c-0.16,0.17-0.35,0.25-0.59,0.25
				c-0.24,0-0.43-0.08-0.59-0.25c-0.15-0.17-0.23-0.42-0.23-0.74v-4.57c0-0.74,0.26-1.11,0.8-1.11c0.27,0,0.47,0.09,0.59,0.26
				c0.12,0.17,0.19,0.43,0.2,0.76c0.2-0.34,0.39-0.59,0.6-0.76c0.21-0.17,0.48-0.26,0.83-0.26c0.35,0,0.68,0.09,1,0.26
				c0.33,0.17,0.49,0.4,0.49,0.69c0,0.2-0.07,0.37-0.21,0.49c-0.14,0.13-0.29,0.2-0.45,0.2c-0.06,0-0.21-0.04-0.44-0.11
				c-0.23-0.07-0.43-0.11-0.61-0.11c-0.24,0-0.44,0.07-0.59,0.19c-0.15,0.13-0.27,0.31-0.36,0.56c-0.08,0.25-0.14,0.55-0.17,0.89
				C265.95,473.01,265.93,473.42,265.93,473.92"/>
			<path class="st13" d="M273.47,473.35h-3.21c0.01,0.37,0.08,0.7,0.22,0.99c0.15,0.28,0.34,0.5,0.58,0.64
				c0.24,0.14,0.51,0.21,0.8,0.21c0.2,0,0.38-0.02,0.54-0.07c0.16-0.04,0.32-0.12,0.47-0.22c0.15-0.1,0.29-0.2,0.42-0.32
				c0.13-0.11,0.3-0.26,0.5-0.45c0.08-0.07,0.2-0.11,0.36-0.11c0.17,0,0.31,0.05,0.41,0.14c0.11,0.09,0.15,0.22,0.15,0.39
				c0,0.15-0.06,0.32-0.17,0.52c-0.12,0.2-0.29,0.39-0.53,0.57c-0.24,0.18-0.53,0.33-0.88,0.45c-0.35,0.12-0.76,0.18-1.22,0.18
				c-1.06,0-1.87-0.3-2.46-0.9c-0.58-0.6-0.88-1.42-0.88-2.45c0-0.48,0.07-0.93,0.22-1.35c0.14-0.42,0.35-0.77,0.63-1.07
				c0.28-0.3,0.61-0.52,1.02-0.68c0.4-0.16,0.85-0.24,1.35-0.24c0.64,0,1.19,0.13,1.65,0.41c0.46,0.27,0.81,0.62,1.03,1.05
				c0.23,0.43,0.34,0.87,0.34,1.31c0,0.41-0.12,0.68-0.35,0.8C274.23,473.29,273.9,473.35,273.47,473.35 M270.26,472.42h2.97
				c-0.04-0.56-0.19-0.98-0.45-1.26c-0.26-0.28-0.61-0.42-1.04-0.42c-0.41,0-0.74,0.14-1.01,0.42
				C270.48,471.45,270.32,471.87,270.26,472.42"/>
			<path class="st13" d="M280.29,473.35h-3.21c0,0.37,0.08,0.7,0.22,0.99c0.15,0.28,0.34,0.5,0.58,0.64
				c0.24,0.14,0.51,0.21,0.8,0.21c0.2,0,0.38-0.02,0.53-0.07c0.16-0.04,0.32-0.12,0.47-0.22c0.15-0.1,0.29-0.2,0.42-0.32
				c0.13-0.11,0.29-0.26,0.5-0.45c0.09-0.07,0.21-0.11,0.36-0.11c0.17,0,0.31,0.05,0.41,0.14c0.1,0.09,0.15,0.22,0.15,0.39
				c0,0.15-0.05,0.32-0.17,0.52c-0.11,0.2-0.29,0.39-0.53,0.57c-0.23,0.18-0.53,0.33-0.88,0.45c-0.35,0.12-0.76,0.18-1.22,0.18
				c-1.05,0-1.87-0.3-2.46-0.9c-0.58-0.6-0.88-1.42-0.88-2.45c0-0.48,0.07-0.93,0.22-1.35c0.14-0.42,0.35-0.77,0.63-1.07
				c0.27-0.3,0.61-0.52,1.02-0.68c0.4-0.16,0.85-0.24,1.35-0.24c0.64,0,1.19,0.13,1.65,0.41c0.45,0.27,0.8,0.62,1.02,1.05
				c0.23,0.43,0.34,0.87,0.34,1.31c0,0.41-0.12,0.68-0.35,0.8C281.05,473.29,280.72,473.35,280.29,473.35 M277.08,472.42h2.97
				c-0.04-0.56-0.19-0.98-0.45-1.26c-0.27-0.28-0.61-0.42-1.04-0.42c-0.41,0-0.74,0.14-1.01,0.42
				C277.3,471.45,277.14,471.87,277.08,472.42"/>
			<path class="st13" d="M283.88,470.54v0.2c0.31-0.38,0.63-0.66,0.96-0.84c0.33-0.18,0.71-0.27,1.13-0.27c0.5,0,0.97,0.13,1.4,0.39
				c0.42,0.26,0.76,0.64,1,1.14c0.25,0.5,0.37,1.09,0.37,1.78c0,0.5-0.07,0.97-0.21,1.39c-0.14,0.42-0.34,0.78-0.59,1.06
				c-0.25,0.28-0.54,0.51-0.88,0.66c-0.34,0.15-0.7,0.23-1.09,0.23c-0.47,0-0.86-0.09-1.18-0.28c-0.32-0.18-0.62-0.46-0.91-0.83
				v2.46c0,0.72-0.26,1.08-0.79,1.08c-0.31,0-0.51-0.09-0.61-0.28c-0.1-0.19-0.15-0.46-0.15-0.82v-7.08c0-0.31,0.07-0.54,0.2-0.7
				c0.14-0.15,0.32-0.23,0.56-0.23c0.23,0,0.42,0.08,0.57,0.24C283.81,470.01,283.88,470.24,283.88,470.54 M287.1,472.92
				c0-0.43-0.07-0.81-0.2-1.11c-0.13-0.31-0.31-0.55-0.55-0.71c-0.23-0.17-0.5-0.25-0.78-0.25c-0.45,0-0.83,0.18-1.14,0.53
				c-0.31,0.36-0.47,0.88-0.47,1.58c0,0.65,0.15,1.16,0.47,1.52c0.31,0.36,0.69,0.54,1.15,0.54c0.27,0,0.52-0.08,0.76-0.24
				c0.23-0.16,0.42-0.4,0.56-0.71C287.03,473.75,287.1,473.37,287.1,472.92"/>
			<path class="st13" d="M290.4,468.85c-0.23,0-0.42-0.07-0.58-0.21c-0.16-0.14-0.24-0.34-0.24-0.59c0-0.23,0.08-0.42,0.25-0.58
				c0.17-0.15,0.36-0.22,0.58-0.22c0.21,0,0.4,0.07,0.57,0.2c0.16,0.14,0.25,0.34,0.25,0.6c0,0.25-0.08,0.45-0.24,0.59
				C290.81,468.78,290.62,468.85,290.4,468.85 M291.21,470.54v4.74c0,0.33-0.08,0.57-0.23,0.74c-0.16,0.17-0.35,0.25-0.6,0.25
				c-0.24,0-0.43-0.08-0.59-0.26c-0.15-0.18-0.22-0.42-0.22-0.74v-4.7c0-0.32,0.08-0.57,0.22-0.73c0.15-0.17,0.35-0.25,0.59-0.25
				c0.24,0,0.44,0.08,0.6,0.25C291.13,470.03,291.21,470.25,291.21,470.54"/>
			<path class="st13" d="M296.5,475.53l-1.44-2.38l-0.89,0.84v1.31c0,0.32-0.08,0.56-0.25,0.73c-0.16,0.17-0.36,0.26-0.57,0.26
				c-0.25,0-0.45-0.08-0.6-0.25c-0.14-0.17-0.22-0.42-0.22-0.74v-7c0-0.36,0.07-0.64,0.21-0.83c0.14-0.19,0.34-0.29,0.6-0.29
				c0.25,0,0.45,0.09,0.6,0.26c0.15,0.17,0.22,0.43,0.22,0.76v3.98l1.84-1.94c0.23-0.24,0.4-0.41,0.52-0.49
				c0.12-0.09,0.27-0.13,0.44-0.13c0.21,0,0.38,0.07,0.52,0.2c0.13,0.13,0.2,0.29,0.2,0.49c0,0.24-0.22,0.56-0.67,0.96l-0.87,0.8
				l1.68,2.64c0.12,0.2,0.21,0.34,0.27,0.45c0.05,0.1,0.08,0.2,0.08,0.29c0,0.26-0.07,0.46-0.22,0.62
				c-0.14,0.15-0.33,0.22-0.56,0.22c-0.2,0-0.36-0.05-0.46-0.16C296.83,476.01,296.68,475.82,296.5,475.53"/>
			<path class="st13" d="M300.06,476.28c-0.25,0-0.46-0.08-0.64-0.24c-0.18-0.16-0.27-0.38-0.27-0.67c0-0.24,0.09-0.45,0.26-0.63
				c0.17-0.18,0.38-0.26,0.64-0.26c0.25,0,0.46,0.09,0.65,0.26c0.18,0.17,0.27,0.39,0.27,0.63c0,0.29-0.09,0.51-0.27,0.67
				C300.51,476.2,300.3,476.28,300.06,476.28"/>
			<path class="st13" d="M308.22,474.25c0,0.2-0.06,0.42-0.18,0.65c-0.12,0.23-0.31,0.45-0.56,0.66c-0.25,0.21-0.56,0.38-0.94,0.51
				c-0.38,0.13-0.81,0.19-1.28,0.19c-1.02,0-1.81-0.3-2.38-0.89c-0.57-0.59-0.85-1.38-0.85-2.38c0-0.68,0.13-1.27,0.39-1.79
				c0.26-0.51,0.63-0.92,1.13-1.2c0.49-0.28,1.08-0.42,1.77-0.42c0.43,0,0.81,0.06,1.17,0.19c0.35,0.12,0.65,0.29,0.9,0.48
				c0.24,0.2,0.43,0.41,0.56,0.63c0.13,0.22,0.19,0.43,0.19,0.62c0,0.19-0.07,0.36-0.22,0.5c-0.15,0.14-0.33,0.2-0.53,0.2
				c-0.14,0-0.25-0.04-0.34-0.11c-0.09-0.07-0.19-0.18-0.3-0.34c-0.2-0.3-0.41-0.53-0.63-0.68c-0.22-0.15-0.49-0.23-0.83-0.23
				c-0.48,0-0.88,0.19-1.17,0.57c-0.3,0.38-0.44,0.9-0.44,1.55c0,0.31,0.04,0.59,0.12,0.85c0.07,0.26,0.18,0.48,0.33,0.66
				c0.15,0.18,0.32,0.32,0.52,0.41c0.21,0.1,0.43,0.14,0.67,0.14c0.33,0,0.61-0.08,0.85-0.23c0.24-0.15,0.44-0.38,0.62-0.7
				c0.1-0.18,0.21-0.33,0.32-0.43c0.12-0.1,0.26-0.16,0.43-0.16c0.2,0,0.37,0.08,0.5,0.23
				C308.15,473.92,308.22,474.08,308.22,474.25"/>
			<path class="st13" d="M315.29,472.95c0,0.49-0.08,0.94-0.23,1.35c-0.16,0.41-0.37,0.77-0.66,1.06c-0.29,0.3-0.63,0.52-1.03,0.68
				c-0.4,0.16-0.85,0.24-1.35,0.24c-0.5,0-0.94-0.08-1.34-0.24c-0.39-0.16-0.74-0.39-1.03-0.68c-0.29-0.3-0.51-0.65-0.66-1.06
				c-0.15-0.41-0.22-0.86-0.22-1.35c0-0.5,0.08-0.95,0.23-1.36c0.15-0.41,0.37-0.77,0.66-1.06c0.29-0.29,0.63-0.52,1.03-0.68
				c0.41-0.16,0.85-0.24,1.34-0.24c0.5,0,0.95,0.08,1.35,0.24c0.4,0.16,0.75,0.39,1.04,0.68c0.29,0.3,0.51,0.65,0.66,1.06
				C315.22,472.01,315.29,472.46,315.29,472.95 M313.65,472.95c0-0.67-0.15-1.19-0.44-1.56c-0.29-0.38-0.69-0.56-1.19-0.56
				c-0.32,0-0.6,0.08-0.85,0.25c-0.24,0.17-0.43,0.41-0.56,0.74c-0.13,0.32-0.2,0.7-0.2,1.14c0,0.43,0.07,0.8,0.2,1.12
				c0.13,0.32,0.32,0.57,0.56,0.74c0.24,0.17,0.53,0.26,0.86,0.26c0.5,0,0.89-0.19,1.19-0.56
				C313.5,474.13,313.65,473.61,313.65,472.95"/>
			<path class="st13" d="M321.55,473.07v2.18c0,0.35-0.08,0.6-0.23,0.78c-0.16,0.17-0.36,0.26-0.62,0.26c-0.25,0-0.45-0.09-0.6-0.26
				c-0.16-0.18-0.24-0.43-0.24-0.78v-2.61c0-0.41-0.01-0.73-0.04-0.96c-0.03-0.22-0.11-0.41-0.23-0.56
				c-0.12-0.15-0.32-0.22-0.59-0.22c-0.54,0-0.89,0.18-1.06,0.56c-0.17,0.37-0.26,0.89-0.26,1.59v2.21c0,0.34-0.08,0.6-0.23,0.77
				c-0.16,0.17-0.36,0.26-0.61,0.26c-0.25,0-0.45-0.09-0.61-0.26c-0.16-0.18-0.24-0.43-0.24-0.77v-4.69c0-0.31,0.07-0.54,0.21-0.7
				c0.14-0.16,0.33-0.24,0.56-0.24c0.23,0,0.41,0.08,0.56,0.23c0.15,0.15,0.22,0.36,0.22,0.62v0.16c0.29-0.34,0.59-0.59,0.91-0.75
				c0.33-0.16,0.68-0.24,1.08-0.24c0.41,0,0.76,0.08,1.06,0.25c0.3,0.16,0.54,0.41,0.73,0.74c0.28-0.33,0.57-0.58,0.89-0.75
				c0.32-0.16,0.67-0.24,1.05-0.24c0.45,0,0.83,0.09,1.16,0.26c0.32,0.18,0.57,0.43,0.73,0.76c0.14,0.3,0.21,0.77,0.21,1.4v3.2
				c0,0.35-0.08,0.6-0.23,0.78c-0.16,0.17-0.36,0.26-0.62,0.26c-0.25,0-0.45-0.09-0.61-0.26c-0.16-0.18-0.24-0.43-0.24-0.77v-2.76
				c0-0.35-0.02-0.63-0.04-0.85c-0.03-0.21-0.11-0.39-0.24-0.54c-0.13-0.14-0.34-0.22-0.6-0.22c-0.22,0-0.42,0.07-0.62,0.19
				c-0.19,0.13-0.34,0.3-0.46,0.51C321.61,471.88,321.55,472.37,321.55,473.07"/>
		</g>
		<g>
			<path class="st13" d="M245.22,472.55c0,0,0-0.01,0-0.01C245.21,472.55,245.21,472.55,245.22,472.55z"/>
			<path class="st13" d="M245.3,473.08C245.3,473.08,245.3,473.08,245.3,473.08c-0.03-0.15-0.05-0.3-0.07-0.44
				C245.24,472.78,245.27,472.93,245.3,473.08z"/>
			<path class="st13" d="M245.84,474.6c0-0.01-0.01-0.01-0.01-0.02C245.83,474.58,245.84,474.59,245.84,474.6z"/>
			<path class="st13" d="M245.79,474.5c-0.01-0.03-0.03-0.06-0.04-0.08C245.76,474.44,245.77,474.47,245.79,474.5z"/>
			<path class="st13" d="M245.45,473.66c0.08,0.25,0.18,0.5,0.29,0.73C245.63,474.16,245.53,473.91,245.45,473.66L245.45,473.66z"/>
			<path class="st13" d="M251.56,466.27c0.32,0,0.55,0.03,0.82,0.07l0.08-0.48c0,0-0.74-0.23-1.71-0.15l-0.08-0.26
				c0.3-0.06,0.53-0.33,0.53-0.65c0-0.37-0.3-0.67-0.67-0.67c-0.37,0-0.67,0.3-0.67,0.67c0,0.32,0.23,0.59,0.53,0.65l0.08,0.29
				c-1.03,0.14-1.86,0.55-1.86,0.55l0.15,0.45c0.62-0.21,1.17-0.33,1.66-0.39C250.91,466.29,251.27,466.27,251.56,466.27z"/>
			<path class="st13" d="M245.83,468.71L245.83,468.71c0.03-0.04,0.05-0.07,0.07-0.1l-0.2-0.14l-0.31-0.22
				c-0.02,0.02-0.5,0.47-0.89,1.29c-0.02-0.03-0.04-0.05-0.06-0.08c-0.11-0.13-0.28-0.19-0.48-0.19c0,0-0.01,0-0.01,0
				c-0.13,0-0.21-0.04-0.27-0.09c0.06-0.07,0.09-0.16,0.09-0.26c0-0.23-0.19-0.42-0.42-0.42c-0.23,0-0.42,0.19-0.42,0.42
				c0,0.23,0.19,0.42,0.42,0.42c0.04,0,0.07-0.01,0.11-0.01c0.1,0.12,0.27,0.22,0.51,0.21c0.13,0,0.22,0.03,0.28,0.1
				c0.07,0.08,0.09,0.19,0.1,0.27c0,0,0,0,0,0c-0.28,0.75-0.2,1.69-0.2,1.69l0.67,0.03c0.01-0.34,0.06-0.94,0.24-1.41
				C245.39,469.31,245.81,468.73,245.83,468.71z"/>
			<path class="st13" d="M257.38,466.83c-0.23,0-0.42,0.19-0.42,0.42c0,0.04,0,0.07,0.01,0.11c-0.12,0.1-0.22,0.27-0.21,0.51
				c0,0.12-0.03,0.21-0.1,0.28c-0.05,0.05-0.12,0.07-0.19,0.09c-0.5-0.7-1.11-1.12-1.11-1.12l-0.48,0.51
				c0.36,0.33,0.73,0.74,1.09,1.26c0.25,0.36,0.51,0.82,0.72,1.27l0.65-0.31c0,0-0.3-0.73-0.71-1.39c0.07-0.02,0.14-0.06,0.21-0.12
				c0.13-0.11,0.19-0.28,0.19-0.48c0-0.13,0.04-0.22,0.09-0.28c0.07,0.06,0.16,0.09,0.26,0.09c0.23,0,0.42-0.19,0.42-0.42
				C257.8,467.02,257.62,466.83,257.38,466.83z"/>
			<path class="st13" d="M255.7,472.65c-0.89,0.43-2.36,1.01-4.29,1.28c-0.76,0.1-1.49,0.14-2.17,0.14c-0.88,0-1.66-0.07-2.25-0.14
				c-0.68-0.09-1.21-0.19-1.54-0.26c0.08,0.25,0.17,0.49,0.29,0.73c0,0.01,0,0.01,0.01,0.02c0.01,0.03,0.03,0.06,0.04,0.08
				c0.01,0.03,0.03,0.05,0.04,0.08c0,0.01,0.01,0.02,0.01,0.02c0.19,0.36,0.42,0.69,0.68,0.98c0.91,1,1.84,1.15,1.85,1.16l0.02,0
				l0.01,0c0.01,0,0.83,0.27,2.08,0.27c1.23,0,2.44-0.25,3.59-0.74c0.85-0.44,1.66-1.1,2.06-1.69c0.31-0.46,0.53-0.94,0.66-1.45
				c0.07-0.27,0.13-0.7,0.09-1.15C256.63,472.15,256.24,472.39,255.7,472.65z"/>
			<path class="st13" d="M246.12,468.92c-0.03,0.04-0.41,0.58-0.72,1.42c-0.23,0.63-0.22,1.55-0.22,1.56v0
				c0,0.21,0.01,0.43,0.04,0.64c0,0.01,0,0.01,0,0.01c0,0.03,0.01,0.05,0.01,0.08c0.02,0.15,0.04,0.29,0.07,0.44
				c0.44,0.11,3.09,0.73,6.04,0.32c1.85-0.26,3.26-0.81,4.11-1.22c0.71-0.34,1.17-0.66,1.34-0.78c-0.18-0.65-0.66-1.67-1.1-2.31
				c-1.27-1.81-2.64-2.28-3.34-2.39c-0.27-0.04-0.48-0.07-0.79-0.07c-0.28,0-0.63,0.02-1.1,0.07c-0.47,0.05-0.99,0.17-1.6,0.38
				c-0.85,0.29-1.62,0.73-2.23,1.29l-0.02,0.02C246.52,468.47,246.33,468.65,246.12,468.92z M253.87,468.5c0.61,0,1.1,0.49,1.1,1.1
				c0,0.61-0.49,1.1-1.1,1.1c-0.61,0-1.1-0.49-1.1-1.1C252.77,468.99,253.27,468.5,253.87,468.5z M248.66,468.45
				c0.99,0,1.78,0.8,1.78,1.78c0,0.98-0.8,1.78-1.78,1.78c-0.98,0-1.78-0.8-1.78-1.78C246.88,469.25,247.68,468.45,248.66,468.45z"
				/>
		</g>
	</g>
</g>
</svg>
