<svg id="Layer_1" data-name="Layer 1" xmlns="http://www.w3.org/2000/svg" viewBox="0 0 2498.7 3060.01"><defs><style>.cls-1{opacity:0.3;}.cls-2{fill:#371a45;}.cls-3,.cls-7{fill:#fff;}.cls-4{opacity:0.35;}.cls-5{fill:#afafb2;}.cls-6{opacity:0.7;}.cls-7{stroke:#371a45;stroke-linecap:round;stroke-linejoin:round;stroke-width:0;}.cls-8{fill:#f9b653;}.cls-9{fill:#f92323;}.cls-10{opacity:0.4;}.cls-11{fill:#343c47;}.cls-12{fill:#111a28;}.cls-13{fill:#fff2bd;}</style></defs><g class="cls-1"><ellipse class="cls-2" cx="1249.35" cy="2906.79" rx="1249.35" ry="153.22"/></g><path class="cls-3" d="M2583.32,2322.29v480.07a159.77,159.77,0,0,1-12.76,62.83c-22.45,52.73-72.16,89.6-129.54,89.6H1592.94c-48.25,0-91-26.05-116.81-65.66a159,159,0,0,1-25.48-86.77V2322.29a159.06,159.06,0,0,1,22.08-81.2c21.77-36.83,57.91-63.07,99.78-69.61a131.19,131.19,0,0,1,20.43-1.58H2441a133.25,133.25,0,0,1,20.15,1.54c31,4.76,58.87,20.35,80.11,43C2567.21,2242.1,2583.32,2280.3,2583.32,2322.29Z" transform="translate(-750.65 -534.99)"/><path class="cls-2" d="M2441,2970.94H1592.94c-51.89,0-100.63-27.29-130.35-73a174.92,174.92,0,0,1-28.09-95.58V2322.29a175.42,175.42,0,0,1,24.34-89.43c24.81-42,65.33-70.18,111.17-77.34a147.1,147.1,0,0,1,22.93-1.77H2441a150.42,150.42,0,0,1,22.59,1.72c33.57,5.16,65.34,22.19,89.46,48,29.92,31.87,46.4,74.08,46.4,118.85v480.07a174.91,174.91,0,0,1-14.06,69.17C2559.7,2931.91,2503,2970.94,2441,2970.94Zm-848.08-784.89a116.1,116.1,0,0,0-17.92,1.38c-36.29,5.67-68.49,28.22-88.38,61.88a143.18,143.18,0,0,0-19.84,73v480.07a142.67,142.67,0,0,0,22.87,78c23.74,36.51,62.35,58.31,103.27,58.31H2441c49,0,94-31.32,114.68-79.78a142.92,142.92,0,0,0,11.46-56.5V2322.29c0-36.52-13.37-70.88-37.65-96.76-19.5-20.83-44-34-70.79-38.13a118.33,118.33,0,0,0-17.7-1.35Z" transform="translate(-750.65 -534.99)"/><path class="cls-3" d="M3025.26,2878.88s-111.48,532-147.86,543.82c-52,16.92-177.11-.89-177.11-.89s-262.58-35.57-496.25-51.44c-67.19-4.57-132-7.51-187.44-7.51-52.33,0-112.94,2.62-176,6.74-236.46,15.47-507.65,52.21-507.65,52.21s-125.13,17.81-177.14.89c-36.38-11.83-147.91-543.82-147.91-543.82,66.34-96,219.62-85.77,292.71,83.5a274.46,274.46,0,0,1,49.83-59.2,247.45,247.45,0,0,1,81.16-48.17c8.76-3.19,17.52-5.89,26.2-8.12,120.74-31.57,230.77,22.05,308.34,80.52,7.06,5.29,13.81,10.66,20.27,16,.64.57,1.33,1,2,1.62,5.12,4.24,10,8.48,14.81,12.67a332.64,332.64,0,0,0,77.21,50.64c4,1.82,7.95,3.63,12.07,5.33a319.47,319.47,0,0,0,124.13,25.16c78.66,0,154.33-29.2,213.4-81.13,65.5-57.58,166.85-124,282.65-120a289.79,289.79,0,0,1,89,17.32,247.81,247.81,0,0,1,92.1,58.47,279.78,279.78,0,0,1,38.89,48.9C2805.68,2793.11,2958.92,2782.93,3025.26,2878.88Z" transform="translate(-750.65 -534.99)"/><g class="cls-4"><path class="cls-2" d="M1864.68,3368.11q-8.52.51-17.13,1.06Q1856.16,3368.62,1864.68,3368.11Z" transform="translate(-750.65 -534.99)"/></g><g class="cls-4"><path class="cls-2" d="M1902.41,3366.05c-8.38.4-16.88.87-25.4,1.35Q1889.82,3366.67,1902.41,3366.05Z" transform="translate(-750.65 -534.99)"/></g><g class="cls-4"><path class="cls-2" d="M1877,3367.4l-12.33.71Q1870.88,3367.74,1877,3367.4Z" transform="translate(-750.65 -534.99)"/></g><g class="cls-4"><path class="cls-2" d="M3025.26,2878.88s-111.48,531.95-147.82,543.78c-52.05,17-177.19-.85-177.19-.85s-319.43-43.25-567.24-55.64c-1.53-.12-3.07-.16-4.6-.24-39.74-1.94-77.53-3.07-111.81-3.07-11.63,0-23.7.12-36.1.4-8.28.12-16.72.36-25.28.65-17.12.52-34.76,1.25-52.81,2.14s-36.26,1.89-54.84,3.11c-2.34.16-4.64.28-7,.44-236.46,15.47-507.69,52.21-507.69,52.21s-125.05,17.85-177.1.85c-36.34-11.83-147.87-543.78-147.87-543.78a143.51,143.51,0,0,1,39.09-38.53c35.73,156,86.45,359.62,108.78,366.89,52,16.92,177.1-.93,177.1-.93s70-19,170-41.67a706.64,706.64,0,0,1-152.43-261.46,247.45,247.45,0,0,1,81.16-48.17c8.76-3.19,17.52-5.89,26.2-8.12,120.74-31.57,230.77,22.05,308.34,80.52,7.06,5.29,13.81,10.66,20.27,16,.64.57,1.33,1,2,1.62,5.12,4.24,10,8.48,14.81,12.67a332.64,332.64,0,0,0,77.21,50.64c4,1.82,7.95,3.63,12.07,5.33a319.47,319.47,0,0,0,124.13,25.16c78.66,0,154.33-29.2,213.4-81.13,65.5-57.58,166.85-124,282.65-120a289.79,289.79,0,0,1,89,17.32,247.81,247.81,0,0,1,92.1,58.47,707.17,707.17,0,0,1-151.58,253.82c93.56,21.52,158.08,39,158.08,39s125.14,17.85,177.19.93c22.29-7.27,73-210.94,108.78-366.89A143.9,143.9,0,0,1,3025.26,2878.88Z" transform="translate(-750.65 -534.99)"/></g><g class="cls-4"><path class="cls-2" d="M1955.22,3363.91c8.56-.29,17-.53,25.28-.65C1972.22,3363.42,1963.78,3363.66,1955.22,3363.91Z" transform="translate(-750.65 -534.99)"/></g><g class="cls-4"><path class="cls-2" d="M2128.41,3365.93c-39.74-1.9-77.57-3-111.81-3-11.63,0-23.7.12-36.1.36,12.4-.28,24.47-.4,36.1-.4C2050.88,3362.86,2088.67,3364,2128.41,3365.93Z" transform="translate(-750.65 -534.99)"/></g><path class="cls-2" d="M1222.83,3446.1c-27.07,0-53.51-2-72.06-8.07-13.2-4.3-31.29-10.19-98.24-287.91-32.11-133.16-60.12-266.59-60.4-267.93a16.12,16.12,0,0,1,2.52-12.49c32.9-47.59,86.27-72.64,142.89-67,66.87,6.62,126.15,52.7,165.67,127.73,32.54-42.4,73.76-72.81,122.84-90.57,98.4-35.6,206.2-18.9,311.78,48.31a16.15,16.15,0,0,1-17.35,27.25c-98.19-62.51-193.55-77.71-283.44-45.18-50.77,18.36-92.09,52.28-122.81,100.81a16.15,16.15,0,0,1-28.47-2.24c-34.09-79-89.28-127.81-151.4-134-42.55-4.23-82.83,13.57-109.14,47.79C1075.63,3122.17,1140,3380,1163,3408c41,11.9,134.47,2.52,167.63-2.2,4.48-.6,439.22-59.08,686-59.08s681.48,58.48,685.85,59.07c33.26,4.73,126.73,14.11,167.74,2.21,23-28,87.38-285.84,137.79-525.42-26.31-34.22-66.52-52-109.13-47.79-62.13,6.15-117.32,55-151.41,134A16.15,16.15,0,0,1,2719,2971c-30.71-48.53-72-82.44-122.8-100.81-90.65-32.8-186.85-17.09-285.89,46.75a16.15,16.15,0,1,1-17.5-27.16c106.44-68.6,215.14-85.88,314.38-50,49.08,17.76,90.29,48.17,122.84,90.57,39.51-75,98.8-121.11,165.66-127.73,56.65-5.62,110,19.46,142.89,67a16.12,16.12,0,0,1,2.52,12.49c-.28,1.34-28.29,134.77-60.4,267.93-67,277.72-85,283.61-98.24,287.91-55,17.92-179.17.51-184.43-.24-4.23-.57-436.84-58.75-681.4-58.75s-677.17,58.18-681.51,58.77C1331.67,3438.3,1276,3446.1,1222.83,3446.1Z" transform="translate(-750.65 -534.99)"/><path class="cls-5" d="M2845.1,3422.68h32.33a96.07,96.07,0,0,0,87.8-56.91c48.38-108.34,136.59-346.39,54-491.67q-3.61-6.36-7.71-12.22s-79.32-72.15-136.31,29.91C2822,2987.14,2710.22,3394.84,2845.1,3422.68Z" transform="translate(-750.65 -534.99)"/><g class="cls-6"><path class="cls-3" d="M2846,2959.74c1.43-2.28,2.85-4.44,4.24-6.44,70.07-102.06,167.61-29.91,167.61-29.91a153.69,153.69,0,0,1,9.46,12.22A213.28,213.28,0,0,1,3051,2980c-4-38.15-13.82-74.22-31.83-105.86q-3.61-6.36-7.71-12.22s-79.32-72.15-136.31,29.91C2866.54,2907.24,2856.39,2930.84,2846,2959.74Z" transform="translate(-750.65 -534.99)"/></g><path class="cls-2" d="M3050.6,2992a16.42,16.42,0,0,1-2.68-.22l-198.26-33.1a16.15,16.15,0,0,1,5.32-31.86l198.27,33.1a16.15,16.15,0,0,1-2.65,32.08Z" transform="translate(-750.65 -534.99)"/><path class="cls-2" d="M3049.34,3099.16a17.69,17.69,0,0,1-2.17-.14l-231.94-31.19a16.15,16.15,0,1,1,4.31-32L3051.47,3067a16.15,16.15,0,0,1-2.13,32.16Z" transform="translate(-750.65 -534.99)"/><path class="cls-2" d="M3028.88,3204.08a16.73,16.73,0,0,1-2-.12l-235.44-28.82a16.15,16.15,0,0,1,3.93-32.06l235.44,28.82a16.15,16.15,0,0,1-1.94,32.18Z" transform="translate(-750.65 -534.99)"/><path class="cls-2" d="M2991.54,3318.5a14.46,14.46,0,0,1-1.47-.07l-210.5-19a16.15,16.15,0,0,1,2.9-32.17l210.5,19a16.15,16.15,0,0,1-1.43,32.24Z" transform="translate(-750.65 -534.99)"/><g class="cls-4"><path class="cls-2" d="M2845.1,3422.68h32.33a96.07,96.07,0,0,0,87.8-56.91c12.51-28.08,27.72-64.81,41.94-106.43-19.4,32.21-58.82,52.63-102.11,52.63h-38.52c-54.82-9.5-75.45-63.26-76.26-133.74C2771.73,3297.17,2776.83,3408.57,2845.1,3422.68Z" transform="translate(-750.65 -534.99)"/></g><path class="cls-2" d="M2877.43,3438.83H2845.1a15.65,15.65,0,0,1-3.27-.34c-26.5-5.47-46.53-22.63-59.51-51-55.34-121,35.08-425.33,78.76-503.56,20.18-36.14,45.65-57,75.69-61.86,46.08-7.52,84,26.42,85.59,27.87a16.5,16.5,0,0,1,2.38,2.7c3,4.3,5.86,8.84,8.5,13.5,84.22,148.08,2.78,380.73-53.27,506.23A112.35,112.35,0,0,1,2877.43,3438.83Zm-30.56-32.31h30.56a80,80,0,0,0,73.05-47.33c43.12-96.55,134.75-336.31,54.68-477.1-1.82-3.2-3.75-6.31-5.76-9.3-5.74-4.65-30.71-23.32-57.61-18.82-19.75,3.3-37.42,18.68-52.5,45.7-45.64,81.75-124.53,371.76-77.6,474.37C2820,3392.21,2831.52,3402.86,2846.87,3406.52Z" transform="translate(-750.65 -534.99)"/><path class="cls-5" d="M1188.1,3422.68h-32.33a96.08,96.08,0,0,1-87.8-56.91c-48.38-108.34-136.59-346.39-54-491.67q3.62-6.36,7.71-12.22s79.32-72.15,136.31,29.91C1211.25,2987.14,1323,3394.84,1188.1,3422.68Z" transform="translate(-750.65 -534.99)"/><g class="cls-6"><path class="cls-3" d="M1187.2,2959.74c-1.42-2.28-2.85-4.44-4.24-6.44-70.07-102.06-167.61-29.91-167.61-29.91a153.69,153.69,0,0,0-9.46,12.22A213.28,213.28,0,0,0,982.17,2980c4-38.15,13.82-74.22,31.83-105.86q3.62-6.36,7.71-12.22s79.32-72.15,136.31,29.91C1166.66,2907.24,1176.81,2930.84,1187.2,2959.74Z" transform="translate(-750.65 -534.99)"/></g><path class="cls-2" d="M982.6,2992A16.15,16.15,0,0,1,980,2960l198.27-33.1a16.15,16.15,0,1,1,5.32,31.86l-198.26,33.1A16.42,16.42,0,0,1,982.6,2992Z" transform="translate(-750.65 -534.99)"/><path class="cls-2" d="M983.86,3099.16a16.15,16.15,0,0,1-2.13-32.16l231.94-31.18a16.15,16.15,0,0,1,4.3,32L986,3099A17.69,17.69,0,0,1,983.86,3099.16Z" transform="translate(-750.65 -534.99)"/><path class="cls-2" d="M1004.32,3204.08a16.15,16.15,0,0,1-1.94-32.18l235.44-28.82a16.15,16.15,0,0,1,3.93,32.06L1006.31,3204A16.73,16.73,0,0,1,1004.32,3204.08Z" transform="translate(-750.65 -534.99)"/><path class="cls-2" d="M1041.66,3318.5a16.15,16.15,0,0,1-1.43-32.24l210.5-19a16.15,16.15,0,0,1,2.9,32.17l-210.5,19A14.46,14.46,0,0,1,1041.66,3318.5Z" transform="translate(-750.65 -534.99)"/><g class="cls-4"><path class="cls-2" d="M1188.1,3422.68h-32.33a96.08,96.08,0,0,1-87.8-56.91c-12.51-28.08-27.71-64.81-41.94-106.43,19.4,32.21,58.82,52.63,102.11,52.63h38.52c54.82-9.5,75.45-63.26,76.26-133.74C1261.47,3297.17,1256.37,3408.57,1188.1,3422.68Z" transform="translate(-750.65 -534.99)"/></g><path class="cls-2" d="M1188.1,3438.83h-32.32a112.38,112.38,0,0,1-102.56-66.48c-56-125.49-137.48-358.14-53.26-506.23,2.64-4.65,5.5-9.19,8.5-13.49a16.5,16.5,0,0,1,2.38-2.7c1.6-1.45,39.53-35.37,85.59-27.87,30,4.9,55.51,25.72,75.69,61.86,43.68,78.23,134.1,382.57,78.76,503.55-13,28.39-33,45.55-59.51,51A15.65,15.65,0,0,1,1188.1,3438.83Zm-154.3-566c-2,3-3.94,6.09-5.75,9.28-80.08,140.8,11.55,380.56,54.67,477.1a80,80,0,0,0,73.06,47.34h30.55c15.35-3.66,26.86-14.31,35.18-32.48,46.94-102.62-32-392.63-77.6-474.37-15.08-27-32.74-42.4-52.5-45.7C1064.52,2849.48,1039.61,2868.08,1033.8,2872.8Z" transform="translate(-750.65 -534.99)"/><path class="cls-2" d="M1552.93,3407.52a12.12,12.12,0,0,1-10.72-17.73c57.06-109,57.9-231.58,2.52-364.29-41.72-99.95-101.44-168.33-102-169a12.12,12.12,0,0,1,18.17-16c2.54,2.88,62.63,71.57,105.94,175,57.76,138,56.68,271.27-3.12,385.53A12.11,12.11,0,0,1,1552.93,3407.52Z" transform="translate(-750.65 -534.99)"/><path class="cls-2" d="M2485.79,3407.52a12.11,12.11,0,0,1-10.74-6.5c-59.8-114.26-60.88-247.58-3.12-385.53,43.32-103.46,103.4-172.15,105.93-175a12.11,12.11,0,0,1,18.17,16c-.6.68-60.31,69.06-102,169-55.38,132.71-54.54,255.27,2.52,364.29a12.12,12.12,0,0,1-10.73,17.73Z" transform="translate(-750.65 -534.99)"/><path class="cls-3" d="M2736.51,2705.25H1296.8c0-140.24,63.28-260,153.85-356.83,47-50.32,101.51-94.41,158.28-131.92,25.52-16.88,51.48-32.43,77.49-46.6,128-69.77,256.24-106.6,330.26-106.6s202.26,36.83,330.22,106.6a1024.9,1024.9,0,0,1,144.47,95,829.33,829.33,0,0,1,92,84.19C2673.56,2445.73,2736.51,2565.29,2736.51,2705.25Z" transform="translate(-750.65 -534.99)"/><path class="cls-2" d="M2736.52,2721.38H1296.8a16.15,16.15,0,0,1-16.16-16.15c0-230.74,161.37-392.1,296.73-486.83C1738,2106,1919.94,2047.17,2016.66,2047.17S2295.32,2106,2456,2218.4c135.36,94.73,296.72,256.09,296.72,486.83A16.15,16.15,0,0,1,2736.52,2721.38Zm-1423.29-32.3H2720.09c-7.41-208.31-156.81-356.15-282.66-444.22-153.5-107.42-331.36-165.39-420.77-165.39s-267.27,58-420.77,165.39C1470,2332.93,1320.63,2480.77,1313.23,2689.08Z" transform="translate(-750.65 -534.99)"/><path class="cls-2" d="M2664.72,2741c-.4,0-.81,0-1.21-.06a11.76,11.76,0,0,1-10.56-12.16c.08-2.08.12-4.19.16-6.3l0-.65a11.76,11.76,0,0,1,23.41-1.4,32.31,32.31,0,0,1,.3,4.6,36.46,36.46,0,0,1-.53,6.13A11.76,11.76,0,0,1,2664.72,2741Z" transform="translate(-750.65 -534.99)"/><path class="cls-7" d="M2674.22,2574.27c0,.56,0,1.06,0,1.62-1.85,27.77-52,53.33-135.26,73.75-118.9-29.25-305.41-48.11-515.12-48.11s-396.26,18.86-515.2,48.11c-83.23-20.42-133.37-46-135.22-73.75,0-.56,0-1.06,0-1.62,0-68.16,291.22-123.48,650.46-123.48S2674.22,2506.11,2674.22,2574.27Z" transform="translate(-750.65 -534.99)"/><path class="cls-3" d="M2674.21,2574.26c0,.56,0,1.07,0,1.62-.77,11.81-10.29,23.2-27.39,34-4.6,2.9-9.78,5.77-15.45,8.6-22.79,11.29-54.12,21.77-92.4,31.19-118.92-29.27-305.42-48.1-515.13-48.1s-396.24,18.83-515.2,48.1c-38.28-9.42-69.6-19.9-92.4-31.19-5.67-2.83-10.85-5.7-15.45-8.6-17.06-10.78-26.58-22.17-27.35-34a10.92,10.92,0,0,1-.08-1.62c0-68.17,291.23-123.47,650.48-123.47S2674.21,2506.09,2674.21,2574.26Z" transform="translate(-750.65 -534.99)"/><path class="cls-2" d="M2631.33,2618.46c-22.79,11.29-54.12,21.77-92.4,31.19-118.92-29.27-305.42-48.1-515.13-48.1s-396.24,18.83-515.2,48.1c-38.28-9.42-69.6-19.9-92.4-31.19,93.62-46.36,330.35-79.31,607.6-79.31S2537.71,2572.1,2631.33,2618.46Z" transform="translate(-750.65 -534.99)"/><path class="cls-2" d="M1508.6,2665.79a16.09,16.09,0,0,1-3.85-.46c-96.87-23.78-145.11-52.68-147.49-88.37-.06-.79-.07-1.7-.07-2.69,0-102.44,398.65-139.63,666.61-139.63s666.57,37.19,666.57,139.63c0,1,0,2-.11,3-2.34,35.33-50.6,64.24-147.5,88a16.17,16.17,0,0,1-7.7,0c-123.06-30.28-309.4-47.64-511.26-47.64s-388.24,17.36-511.35,47.64A16.15,16.15,0,0,1,1508.6,2665.79ZM2023.8,2467c-172.75,0-335,12.74-456.93,35.89-140.31,26.64-177.38,58.37-177.38,71.43,0,.07,0,.47,0,.54.2,3,5.24,29.69,119.13,58.2,125.52-30.29,312.91-47.63,515.17-47.63s389.61,17.35,515.08,47.63c113.94-28.52,119-55.21,119.18-58.2v-.54c0-13.06-37.07-44.79-177.37-71.43C2358.79,2479.69,2196.53,2467,2023.8,2467Z" transform="translate(-750.65 -534.99)"/><path class="cls-2" d="M2532.11,2648a1.69,1.69,0,0,1,0,3.29c-119.14,28.31-302.56,46.46-508.31,46.46s-389.43-18.18-508.61-46.52a1.64,1.64,0,0,1,0-3.18c119.18-28.34,302.74-46.52,508.61-46.52S2413,2619.68,2532.11,2648Z" transform="translate(-750.65 -534.99)"/><path class="cls-2" d="M2023.8,2713.9c-200.13,0-386.88-17.12-512.35-47a17.79,17.79,0,0,1,0-34.61c125.48-29.84,312.23-47,512.36-47s386.63,17.1,512.05,46.9h0a17.85,17.85,0,0,1,0,34.72C2410.41,2696.8,2223.78,2713.9,2023.8,2713.9Zm-435.36-64.26c118,20.49,272,32,435.36,32s317.29-11.46,435.3-32c-118-20.49-272-31.95-435.3-31.95S1706.47,2629.15,1588.44,2649.64Z" transform="translate(-750.65 -534.99)"/><path class="cls-8" d="M2362.36,2887.87h0c-11.84-6-14.67-25-6.09-42.54l398.62-814.57c8.59-17.55,31.92-24.28,51.51-14.29h0c19.6,10,27.87,32.82,18.72,50.08L2400.36,2867.8C2391.21,2885.05,2374.21,2893.91,2362.36,2887.87Z" transform="translate(-750.65 -534.99)"/><g class="cls-1"><path class="cls-2" d="M2828.83,2051.34a32.06,32.06,0,0,1-3.71,15.19q-212.35,400.65-424.75,801.28c-9.15,17.24-26.18,26.11-38,20.08s-14.67-25-6.06-42.55l169.44-346.27a16.52,16.52,0,0,0,2.9,1.87c11.88,6,28.87-2.83,38-20.07q122.29-230.73,244.64-461.48C2822.47,2027.07,2828.83,2039.32,2828.83,2051.34Z" transform="translate(-750.65 -534.99)"/></g><path class="cls-2" d="M2370.49,2901.55a29.35,29.35,0,0,1-13.47-3.2h0c-17.87-9.1-22.84-34.66-11.31-58.19l398.61-814.57a45.26,45.26,0,0,1,26.7-22.92,53.73,53.73,0,0,1,67.34,34.31,45.28,45.28,0,0,1-2.84,35.08l-424.76,801.25C2401.41,2891,2385.46,2901.55,2370.49,2901.55Zm-2.79-24.16c4.61,2.32,15.53-2.4,22.26-15.1L2814.73,2061a21.93,21.93,0,0,0,1.19-17,30.18,30.18,0,0,0-37.44-19.07,21.87,21.87,0,0,0-13,10.93L2366.84,2850.5c-6.32,12.92-3.71,24.55.86,26.89Z" transform="translate(-750.65 -534.99)"/><path class="cls-8" d="M2355.9,2868.58h0c-10.73-7.84-10.51-27,.76-43L2880,2085c11.27-15.95,35.38-18.88,53.14-5.9h0c17.75,13,22.27,36.84,10.49,52.42l-547,723.32C2384.83,2870.4,2366.63,2876.43,2355.9,2868.58Z" transform="translate(-750.65 -534.99)"/><g class="cls-1"><path class="cls-2" d="M2950.18,2111.5a32.92,32.92,0,0,1-6.55,20q-273.52,361.67-547,723.33c-11.8,15.55-30,21.58-40.74,13.75s-10.48-27,.77-42.95q89.64-126.81,179.26-253.65a16.71,16.71,0,0,0,5,5.63c10.85,7.72,29,1.47,40.56-14.23q177.78-240.54,355.58-481.11A40.34,40.34,0,0,1,2950.18,2111.5Z" transform="translate(-750.65 -534.99)"/></g><path class="cls-2" d="M2367,2883.79a30.24,30.24,0,0,1-18.09-5.71h0c-16.18-11.83-17-37.86-1.9-59.25l523.34-740.64a45.27,45.27,0,0,1,30-18.37,53.71,53.71,0,0,1,61,44.61,45.19,45.19,0,0,1-8.39,34.17l-547,723.32C2395.36,2876,2380.53,2883.79,2367,2883.79Zm-4.2-24.71c4.72,3.44,16.38-.77,24.39-11.36l547-723.32a21.85,21.85,0,0,0,3.88-16.55,30.19,30.19,0,0,0-33.92-24.8,21.85,21.85,0,0,0-14.6,8.72l-523.34,740.64c-8.3,11.74-7.57,23.64-3.43,26.67Z" transform="translate(-750.65 -534.99)"/><path class="cls-9" d="M2674.18,2575.89v132.85q0,6.66-.14,13.31c-.05,2.41-.09,4.81-.19,7.17-10.81,349.77-297.69,630-650.09,630s-639.24-280.27-650-630c-.1-2.36-.14-4.76-.19-7.17q-.13-6.65-.14-13.31V2575.89c1.85,27.77,52,53.33,135.22,73.75,118.94,29.25,305.5,48.11,515.2,48.11s396.22-18.86,515.12-48.11C2622.14,2629.22,2672.33,2603.66,2674.18,2575.89Z" transform="translate(-750.65 -534.99)"/><g class="cls-10"><path class="cls-3" d="M2674.17,2584.65v56.83c-1.84,26.2-52,50.33-135.24,69.63-118.92,27.59-305.42,45.4-515.13,45.4s-396.24-17.81-515.2-45.4c-83.25-19.3-133.37-43.43-135.2-69.63v-56.83c1.83,26.21,51.95,50.34,135.2,69.63,119,27.6,305.5,45.41,515.2,45.41s396.21-17.81,515.13-45.41C2622.14,2635,2672.33,2610.86,2674.17,2584.65Z" transform="translate(-750.65 -534.99)"/></g><g class="cls-1"><path class="cls-2" d="M2663.8,2684.28v76.93c0,4.12,0,8.2-.14,12.24,0,2.25-.08,4.45-.19,6.62a563.7,563.7,0,0,1-41.18,193.86c-91.45,225.26-324,385.32-596.35,385.32-270.27,0-501.23-157.56-594.15-380a563.12,563.12,0,0,1-43.39-199.15c-.07-2.17-.11-4.37-.19-6.62q-.11-6.06-.11-12.24v-87.59c1.84-1.65,3.68-3.2,5.59-4.67,14.57-11.36,31.26-18.42,49.39-19.93,66.22-5.52,111.82,54.53,119.54,147.31,5.3,63.76-8.68,126.38-39.46,161.05,116.79,139.95,298.55,229.89,502.78,229.89,201.35,0,380.91-87.44,497.8-224-34.42-33.24-50.26-99.25-44.67-166.54,7.72-92.77,53.31-152.82,119.54-147.3,21.95,1.84,41.84,11.8,58.35,27.72v0C2659.32,2679.39,2661.6,2681.78,2663.8,2684.28Z" transform="translate(-750.65 -534.99)"/></g><g class="cls-1"><path class="cls-11" d="M2663.8,2639.09v45.19c-2.2-2.5-4.48-4.89-6.84-7.13v0c1.44-9.3,2.69-18.64,3.68-28.09A23.22,23.22,0,0,0,2663.8,2639.09Z" transform="translate(-750.65 -534.99)"/><path class="cls-2" d="M2663.8,2686.19a1.88,1.88,0,0,1-1.42-.65c-2.24-2.53-4.5-4.89-6.73-7a1.9,1.9,0,0,1-.59-1.38c1.55-10.23,2.75-19.39,3.68-28.33a2.08,2.08,0,0,1,.25-.75,21.75,21.75,0,0,0,2.91-9.12,1.91,1.91,0,0,1,3.81.14v45.19a1.9,1.9,0,0,1-1.23,1.78A1.79,1.79,0,0,1,2663.8,2686.19Zm-4.81-9.73c1,.94,1.94,1.92,2.91,2.93V2655C2661.1,2661.86,2660.14,2669,2659,2676.46Z" transform="translate(-750.65 -534.99)"/></g><path class="cls-2" d="M2023.75,3371c-173.25,0-337.09-66.47-461.31-187.18-124-120.44-195.16-281.76-200.5-454.26-.08-2.12-.12-4.38-.17-6.65v-.64q-.15-6.76-.15-13.54V2575.89a11.77,11.77,0,0,1,23.51-.78c1.06,15.78,34.78,40.64,126.28,63.1,123.45,30.36,310.21,47.77,512.4,47.77s388.91-17.41,512.3-47.76c91.55-22.47,125.29-47.34,126.33-63.11a11.77,11.77,0,0,1,23.51.78v132.86q0,6.77-.14,13.55c0,2.45-.09,4.94-.19,7.38-5.33,172.39-76.54,333.72-200.51,454.16C2360.86,3304.55,2197,3371,2023.75,3371Zm-638.6-757.54v95.27q0,6.52.13,13.06l0,.65c0,2.11.08,4.22.16,6.3,10.73,347,291.1,618.73,638.29,618.73s627.62-271.74,638.34-618.64c.09-2.37.14-4.69.18-7,.09-4.39.14-8.74.14-13.09v-95.28c-23,17.7-63.06,33.45-120.69,47.6-125.14,30.79-313.92,48.44-517.92,48.44s-392.81-17.65-518-48.44C1448.18,2646.93,1408.17,2631.18,1385.15,2613.48Z" transform="translate(-750.65 -534.99)"/><path class="cls-2" d="M2023.75,3375.41c-174.4,0-339.32-66.92-464.37-188.42-124.78-121.24-196.45-283.64-201.82-457.27-.08-2.12-.13-4.4-.18-6.7v-.64q-.15-6.81-.14-13.63V2575.89a16.15,16.15,0,0,1,32.27-1.08c.2,3,5.36,30.28,122.94,59.15,123.13,30.27,309.5,47.63,511.36,47.63S2412,2664.23,2535.06,2634c117.64-28.88,122.8-56.13,123-59.15a16.15,16.15,0,0,1,32.27,1.08v132.86q0,6.81-.15,13.64c0,2.48-.09,5-.19,7.46-5.36,173.5-77,335.89-201.83,457.14C2363.09,3308.49,2198.16,3375.41,2023.75,3375.41ZM1389.53,2621.8v86.95q0,6.48.14,13v.65c0,2.09.08,4.17.16,6.21,10.66,344.65,289.1,614.52,633.91,614.52s623.31-269.87,634-614.38c.09-2.38.14-4.67.18-7,.09-4.37.13-8.69.13-13v-87c-24.37,16.2-62.64,30.62-115.26,43.54-125.47,30.86-314.63,48.57-519,48.57s-393.53-17.71-519.06-48.57C1452.16,2652.42,1413.9,2638,1389.53,2621.8Z" transform="translate(-750.65 -534.99)"/><path class="cls-3" d="M1517.87,2751.56c8.46,101.57-27.77,200.49-100.29,206.52s-138.16-71.4-146.62-173,43.48-188.8,116-194.83S1509.42,2650,1517.87,2751.56Z" transform="translate(-750.65 -534.99)"/><path class="cls-2" d="M1409.69,2960.68c-70.4,0-132.75-76.49-141-175.38-4.13-49.59,5.8-97.39,27.94-134.59,22.3-37.45,54.31-59.72,90.13-62.7,72.36-6,124.61,58.11,133.37,163.36,4.32,51.93-2.77,101.72-20,140.2-18.54,41.47-47.8,65.9-82.4,68.78C1415.07,2960.57,1412.37,2960.68,1409.69,2960.68ZM1396,2592.17c-2.9,0-5.83.12-8.81.37-34.32,2.86-65.08,24.34-86.6,60.49-21.67,36.4-31.37,83.24-27.32,131.89,8.34,100.16,73.06,176.83,144.16,170.9,42.14-3.51,66-37.88,78.63-66.1,16.89-37.8,23.85-86.8,19.59-138C1507.44,2653.63,1460.88,2592.17,1396,2592.17Z" transform="translate(-750.65 -534.99)"/><g class="cls-4"><path class="cls-3" d="M1517.88,2809.08c-8.5-101.52-58.43-167.2-130.92-161.16-60.2,5-106.23,66-115.29,144.69-.28-2.46-.52-5-.72-7.49-8.46-101.56,43.49-188.82,116-194.86s122.46,59.72,130.92,161.32A342.82,342.82,0,0,1,1517.88,2809.08Z" transform="translate(-750.65 -534.99)"/></g><g class="cls-1"><path class="cls-2" d="M1417.57,2958.07c-72.53,6-138.16-71.39-146.62-173a247,247,0,0,1,6.08-79.89c19.61,81.94,77.48,139.85,140.54,134.62,51-4.27,84.08-54.49,96.28-119.24,1.77,9.87,3.14,20.21,4,31C1526.33,2853.13,1490.09,2952,1417.57,2958.07Z" transform="translate(-750.65 -534.99)"/></g><path class="cls-2" d="M1409.76,2974.56c-77.57,0-146.06-82-154.89-188.11-4.37-52.45,6.23-103.18,29.85-142.84,24.65-41.41,60.48-66.07,100.9-69.43,80.59-6.74,138.89,62.38,148.35,176,4.52,54.22-3,106.43-21.13,147-20.69,46.3-54,73.62-93.92,76.94C1415.86,2974.43,1412.8,2974.56,1409.76,2974.56Zm-14-368.5c-2.45,0-4.92.1-7.43.31-29.73,2.48-56.66,21.57-75.83,53.76-20.2,33.94-29.22,77.85-25.41,123.64,7.44,89.28,61.65,158.49,122.51,158.5,2.22,0,4.44-.1,6.67-.28,35.38-2.95,56-33.13,67.11-57.93,15.72-35.18,22.44-83,18.43-131.16C1494.27,2662.66,1453,2606.06,1395.73,2606.06Z" transform="translate(-750.65 -534.99)"/><path class="cls-3" d="M2525.8,2751.56c-8.46,101.57,27.77,200.49,100.29,206.52s138.16-71.4,146.62-173-43.48-188.8-116-194.83S2534.25,2650,2525.8,2751.56Z" transform="translate(-750.65 -534.99)"/><path class="cls-2" d="M2634,2960.68c-2.69,0-5.37-.11-8.08-.33-77.25-6.43-110.4-112.47-102.37-209h0c8.76-105.25,61.15-169.36,133.37-163.36,73.65,6.13,126.61,94.64,118.07,197.29C2766.74,2884.18,2704.38,2960.68,2634,2960.68Zm-105.92-208.93c-7.85,94.31,23.91,197.88,98.22,204.07,71.23,5.94,135.82-70.74,144.16-170.9s-42.77-186.46-113.92-192.38c-69.4-5.78-119.93,56.7-128.46,159.21Z" transform="translate(-750.65 -534.99)"/><g class="cls-4"><path class="cls-3" d="M2525.79,2809.08c8.5-101.52,58.43-167.2,130.92-161.16,60.2,5,106.23,66,115.29,144.69.28-2.46.52-5,.72-7.49,8.46-101.56-43.49-188.82-116-194.86s-122.46,59.72-130.92,161.32A342.82,342.82,0,0,0,2525.79,2809.08Z" transform="translate(-750.65 -534.99)"/></g><g class="cls-1"><path class="cls-2" d="M2626.1,2958.07c72.53,6,138.16-71.39,146.62-173a247,247,0,0,0-6.08-79.89c-19.61,81.94-77.48,139.85-140.54,134.62-51-4.27-84.08-54.49-96.28-119.24-1.77,9.87-3.14,20.21-4,31C2517.34,2853.13,2553.58,2952,2626.1,2958.07Z" transform="translate(-750.65 -534.99)"/></g><path class="cls-2" d="M2633.91,2974.56q-4.57,0-9.16-.38c-86.24-7.18-123.64-120.75-115.05-224h0c9.46-113.66,67.76-182.79,148.35-176,81.27,6.77,139.93,102,130.75,212.27C2780,2892.57,2711.48,2974.56,2633.91,2974.56Zm-92-221.66c-7.39,88.83,22.58,183.85,85.54,189.09,63.55,5.28,121.48-65.68,129.18-158.22s-37.71-172.11-101.24-177.4c-61.33-5.1-105.64,52.44-113.48,146.53Z" transform="translate(-750.65 -534.99)"/><path class="cls-3" d="M2665.16,1951.18h0a12.69,12.69,0,0,1-11.94-13.39l20.83-364.88a12.69,12.69,0,0,1,13.39-11.94h0a133.11,133.11,0,0,1,125.31,140.48l-7.11,124.43A133.1,133.1,0,0,1,2665.16,1951.18Z" transform="translate(-750.65 -534.99)"/><path class="cls-2" d="M2672.83,1954.3q-3.9,0-7.84-.22h0a15.61,15.61,0,0,1-14.67-16.46l20.84-364.88a15.58,15.58,0,0,1,16.45-14.67c74.87,4.28,132.31,68.67,128,143.55l-7.1,124.42C2804.42,1898.29,2744.31,1954.3,2672.83,1954.3Zm-7.5-6c71.54,4,133.32-50.89,137.42-122.57l7.1-124.43c4.09-71.68-50.9-133.32-122.58-137.42a9.5,9.5,0,0,0-7.07,2.47,9.73,9.73,0,0,0-3.25,6.74L2656.11,1938a9.79,9.79,0,0,0,9.22,10.32Z" transform="translate(-750.65 -534.99)"/><g class="cls-4"><path class="cls-2" d="M2809,1767.53l-3.31,58.36a133.18,133.18,0,0,1-140.51,125.32,12.72,12.72,0,0,1-11.94-13.42l5.5-97a12.72,12.72,0,0,0,11.1,8.17l8.65.47A133,133,0,0,0,2809,1767.53Z" transform="translate(-750.65 -534.99)"/></g><path class="cls-2" d="M2672.84,1967.55q-4.28,0-8.6-.24h0a28.85,28.85,0,0,1-27.15-30.44L2657.93,1572a28.83,28.83,0,0,1,30.43-27.15c82.17,4.69,145.2,75.36,140.51,157.53l-7.1,124.42C2817.24,1906.08,2751.28,1967.55,2672.84,1967.55Zm-3.3-32.35a116.91,116.91,0,0,0,120-110.25l7.1-124.42A117.11,117.11,0,0,0,2690,1577.34Z" transform="translate(-750.65 -534.99)"/><path class="cls-3" d="M1483.06,1492.2h0a12.69,12.69,0,0,1,11.94,13.39l-20.83,364.88a12.69,12.69,0,0,1-13.39,12h0a133.11,133.11,0,0,1-125.31-140.48l7.11-124.43A133.11,133.11,0,0,1,1483.06,1492.2Z" transform="translate(-750.65 -534.99)"/><path class="cls-2" d="M1461.53,1885.34l-.92,0a136,136,0,0,1-128-143.55l7.1-124.43a136,136,0,0,1,143.54-128h0a15.63,15.63,0,0,1,14.68,16.46l-20.84,364.88a15.59,15.59,0,0,1-15.53,14.7Zm13.77-390.46a130.24,130.24,0,0,0-129.83,122.8l-7.1,124.42A130.19,130.19,0,0,0,1461,1879.52a9.59,9.59,0,0,0,7.07-2.47,9.73,9.73,0,0,0,3.25-6.74l20.84-364.88a9.81,9.81,0,0,0-9.22-10.33C1480.36,1495,1477.82,1494.88,1475.3,1494.88Z" transform="translate(-750.65 -534.99)"/><g class="cls-4"><path class="cls-2" d="M1480,1769.25l-5.79,101.22a12.73,12.73,0,0,1-13.42,12A133.07,133.07,0,0,1,1335.48,1742l3-52.43a133.18,133.18,0,0,0,116.61,85l13.32.75A12.83,12.83,0,0,0,1480,1769.25Z" transform="translate(-750.65 -534.99)"/></g><path class="cls-2" d="M1461.54,1898.59c-.56,0-1.12,0-1.68,0A149.26,149.26,0,0,1,1319.35,1741l7.1-124.43A149.26,149.26,0,0,1,1484,1476.08h0a28.88,28.88,0,0,1,27.15,30.43l-20.84,364.88a28.83,28.83,0,0,1-28.75,27.2Zm13.78-390.46a117,117,0,0,0-116.62,110.3l-7.1,124.43a117,117,0,0,0,106.65,123.19l20.43-357.87C1477.56,1508.15,1476.43,1508.13,1475.32,1508.13Z" transform="translate(-750.65 -534.99)"/><g class="cls-4"><path class="cls-2" d="M2541.28,2214.48a624.58,624.58,0,0,1-49.91,50.39c-130.26,117.42-309.1,179.45-496.7,155.3a620.48,620.48,0,0,1-385.74-203.67q-19.26-21.69-36.42-45a131.19,131.19,0,0,1,20.43-1.58h93.48c128-69.77,256.24-106.6,330.26-106.6s202.26,36.83,330.22,106.6H2441a133.25,133.25,0,0,1,20.15,1.54C2492.18,2176.2,2520,2191.79,2541.28,2214.48Z" transform="translate(-750.65 -534.99)"/></g><circle class="cls-3" cx="1323.54" cy="1186.71" r="622.8"/><path class="cls-2" d="M2075.47,2347.5a636.29,636.29,0,0,1-81.17-5.22c-342.19-44.05-584.74-358.28-540.69-700.47,21.33-165.76,105.94-313.29,238.24-415.42s296.46-146.6,462.22-125.27,313.3,106,415.42,238.25,146.61,296.45,125.27,462.21l-2.88-.37,2.88.37c-21.33,165.76-106,313.3-238.25,415.42C2345.88,2302.4,2213,2347.5,2075.47,2347.5Zm-2.56-1245.8c-136.23,0-267.89,44.67-377.51,129.29-131.07,101.17-214.9,247.34-236,411.56-43.63,339,196.67,650.33,535.68,694,164.22,21.14,326.85-22.94,457.93-124.11s214.89-247.34,236-411.57-22.94-326.85-124.12-457.92-247.34-214.9-411.56-236A628.34,628.34,0,0,0,2072.91,1101.7Z" transform="translate(-750.65 -534.99)"/><g class="cls-4"><path class="cls-2" d="M2697,1714.94a618.92,618.92,0,0,1-5.07,86.28c-44,341.13-356.1,582.08-697.24,538.2s-582.08-356.1-538.2-697.24c1.26-9.81,2.75-19.6,4.46-29.21,2.94,306,231.14,570.77,543.28,611C2335.53,2266.56,2639.45,2040.52,2697,1714.94Z" transform="translate(-750.65 -534.99)"/></g><path class="cls-2" d="M2075.5,2360.75a650.56,650.56,0,0,1-82.89-5.33c-349.43-45-597.12-365.86-552.15-715.3,21.79-169.27,108.2-319.93,243.3-424.21s302.74-149.7,472-127.93,319.93,108.19,424.21,243.29,149.72,302.73,127.93,472-108.19,319.93-243.29,424.22C2351.63,2314.7,2215.91,2360.75,2075.5,2360.75ZM2072.94,1115c-133.32,0-262.16,43.72-369.44,126.53-128.27,99-210.31,242-231,402.77C1429.8,1976,1665,2280.67,1996.73,2323.38c160.73,20.7,319.87-22.45,448.14-121.46s210.31-242.06,231-402.77h0c20.69-160.72-22.44-319.87-121.46-448.14s-242.05-210.31-402.76-231A615.89,615.89,0,0,0,2072.94,1115Z" transform="translate(-750.65 -534.99)"/><path class="cls-2" d="M2687.87,1816.82c-13.73,121.1-65.79,229.07-143.57,314.46-58.31,64-279.34,162.58-535.44,135.86-237.47-24.76-439-175.72-481.45-251.17-56.68-100.64-83.24-217.53-69.51-338.62,36.34-320.46,326.73-422.09,666.39-383.57S2724.21,1496.37,2687.87,1816.82Z" transform="translate(-750.65 -534.99)"/><path class="cls-2" d="M2097.67,2287.91a872.62,872.62,0,0,1-90.49-4.7c-246-25.66-449.22-180.08-493.85-259.31-60.44-107.32-85.15-227.78-71.48-348.37,17.83-157.19,94.6-271.24,228.19-339,116.53-59.09,274.25-79.42,456.07-58.81s331,75.75,431.32,159.44c115,95.94,164.31,224.29,146.49,381.47h0c-13.68,120.59-64.75,232.46-147.68,323.52C2505.27,2198.12,2326.58,2287.91,2097.67,2287.91ZM1992.55,1302.2c-120.56,0-225.43,21.33-307.9,63.15-123.29,62.53-194.18,168.11-210.7,313.82C1461,1793,1484.4,1906.68,1541.48,2008c40.54,72,237.35,218.87,469.05,243,256.82,26.78,469.82-73.57,521.83-130.67,78.33-86,126.55-191.61,139.46-305.41,16.52-145.71-28.93-264.48-135.09-353-95.48-79.63-238.72-132.24-414.27-152.15A1154.88,1154.88,0,0,0,1992.55,1302.2Zm695.32,514.62h0Z" transform="translate(-750.65 -534.99)"/><g class="cls-6"><ellipse class="cls-3" cx="2492.93" cy="1750.62" rx="110.22" ry="79.86" transform="translate(-652.19 3098.69) rotate(-73.26)"/></g><g class="cls-6"><ellipse class="cls-3" cx="2371.12" cy="1956.54" rx="50.59" ry="43.41" transform="translate(-1147.46 2759.01) rotate(-65.32)"/></g><g class="cls-4"><path class="cls-12" d="M2602.16,1504.3c67,80.27,100.28,183.79,85.7,312.5-13.73,121.12-65.81,229.08-143.54,314.49-58.33,64-279.38,162.56-535.48,135.87-90.43-9.4-175.61-37.14-248.82-72.07,315.51,26.09,584.89-95.08,657.2-174.49,98.72-108.38,164.78-245.43,182.19-399.09A630.77,630.77,0,0,0,2602.16,1504.3Z" transform="translate(-750.65 -534.99)"/></g><path class="cls-2" d="M2666.84,1546a16.13,16.13,0,0,1-11.42-4.73c-.36-.37-.79-.83-1.11-1.23a15.43,15.43,0,0,1-1.66-2.44C2565,1379.66,2373.18,1273,2126.32,1245c-248.24-28.15-459.19,35.55-578.77,174.75a16.49,16.49,0,0,1-23.9,1.12,16.33,16.33,0,0,1-.3-22.53c126.71-147.2,347.76-214.8,606.61-185.44,257,29.15,457.59,141.47,550.53,308.22a16.16,16.16,0,0,1-13.65,24.8Zm-.06-16.23h0Z" transform="translate(-750.65 -534.99)"/><g class="cls-6"><path class="cls-3" d="M1574.39,1883.65s-63.4-327.39,121.26-434.05,429.72-78.35,422.21-63.28c0,0-278.82,34.92-409.32,237.41C1607.9,1779.88,1574.39,1883.65,1574.39,1883.65Z" transform="translate(-750.65 -534.99)"/></g><path class="cls-3" d="M1883.13,977.71a1438.23,1438.23,0,0,0-28.57,149.48,27.4,27.4,0,0,0,12.94,27c66.82,40.66,347.47,196.86,687.21,177.91,0,0,57-161.69,73.6-218.08" transform="translate(-750.65 -534.99)"/><path class="cls-2" d="M2496.88,1349.87c-313.27,0-564.9-137.53-637.78-181.87a43.56,43.56,0,0,1-20.55-42.94,1443.58,1443.58,0,0,1,28.93-151.37,16.15,16.15,0,0,1,31.29,8,1437.37,1437.37,0,0,0-28.2,147.59,11.26,11.26,0,0,0,5.32,11.09c74.54,45.35,341.06,190.81,667.17,176.12,12.75-36.38,55.85-159.88,69.76-207.06a16.15,16.15,0,0,1,31,9.13c-16.56,56.15-71.54,212.26-73.87,218.88a16.15,16.15,0,0,1-14.34,10.76Q2525.92,1349.89,2496.88,1349.87Z" transform="translate(-750.65 -534.99)"/><g class="cls-1"><path class="cls-2" d="M2636.64,1085.75c-12.1,41-55.06,143.11-77.61,195.64a195.56,195.56,0,0,1-153.7-114.53c-86.91,58.41-200.17,70.9-299.35,22.73a295.37,295.37,0,0,1-135.4-133.72,196.91,196.91,0,0,1-96.84-7.27c5.55-56.27,17.72-99.17,17.72-99.17Z" transform="translate(-750.65 -534.99)"/></g><path class="cls-7" d="M2783.05,1114.18c-49.43,101.85-169.94,145.32-269.11,97.19a195.19,195.19,0,0,1-93.27-96.48c-86.92,58.42-200.18,70.88-299.35,22.74a295.48,295.48,0,0,1-135.41-133.74,196,196,0,0,1-119.58-16.59c-102-49.49-142.08-177.23-89.64-285.27s177.67-155.68,279.63-106.19a185.21,185.21,0,0,1,25.07,14.57c88.41-65.21,207.18-81,310.73-30.74,99.17,48.14,159.46,144.82,167.22,249.19A195.57,195.57,0,0,1,2693,842.51C2792.13,890.64,2832.54,1012.21,2783.05,1114.18Z" transform="translate(-750.65 -534.99)"/><g class="cls-1"><path class="cls-2" d="M2783.06,1114.2c-49.43,101.82-170,145.3-269.11,97.18a195.47,195.47,0,0,1-93.3-96.49c-86.9,58.41-200.17,70.89-299.35,22.73a295.51,295.51,0,0,1-135.4-133.72,195.93,195.93,0,0,1-119.56-16.59C1797.71,954,1757.1,885.25,1753.85,810.94A227,227,0,0,1,1776.67,702c52.51-108.14,177.68-155.67,279.66-106.2a187.54,187.54,0,0,1,25,14.59c88.43-65.21,207.21-81,310.75-30.75a295.63,295.63,0,0,1,138.75,140.81c1.84,3.81,3.55,7.63,5.09,11.44a305.92,305.92,0,0,1,23.4,97,195.61,195.61,0,0,1,217.41,91.61C2809.69,977.14,2814.4,1049.61,2783.06,1114.2Z" transform="translate(-750.65 -534.99)"/></g><path class="cls-3" d="M2767.93,1032c-49.42,101.82-133.51,140.06-217.33,69.58-51.28-43.11-33.9-94.73-33.07-133.73-74.1,102.13-247.08,160-394.29,75.73C2043.47,997.88,1991.8,912.8,1983.57,857c-53.4,104.25-111.23,77.49-149.1,58-57.89-29.74-61.38-70.16-80.62-104.14A227,227,0,0,1,1776.67,702c52.51-108.14,177.68-155.67,279.66-106.2a187.54,187.54,0,0,1,25,14.59c88.43-65.21,207.21-81,310.75-30.75a295.63,295.63,0,0,1,138.75,140.81c.49,4.11.9,8.2,1.2,12.35,1.28-.33,2.59-.64,3.89-.91a305.92,305.92,0,0,1,23.4,97,195.61,195.61,0,0,1,217.41,91.61C2789.32,963.94,2783.26,1000.38,2767.93,1032Z" transform="translate(-750.65 -534.99)"/><path class="cls-2" d="M2604.42,1236.74a211.82,211.82,0,0,1-181.37-102.9c-89.89,57.53-202.93,67.1-299.31,24.32A310.16,310.16,0,0,1,1982,1032.27a211.27,211.27,0,0,1-118.26-15.66c-54.21-24.07-95.21-69-115.46-126.51-20.13-57.17-17.31-120,7.94-176.86,52.3-117.82,185.61-173.38,297.17-123.87,6.32,2.81,12.25,5.78,17.91,9,92.83-68.49,213.31-82.65,317.14-36.56,96.42,42.8,165.11,133,182.62,238.24a212.65,212.65,0,0,1,127,14.19c52.76,23.42,93,66.5,113.27,121.3s18.19,114.5-5.77,168.46-66.9,95.52-121,117.16A215.47,215.47,0,0,1,2604.42,1236.74Zm-175.73-142.43a15.83,15.83,0,0,1,3.92.49,16.11,16.11,0,0,1,10.59,8.56c18.93,38.68,49.55,68.27,88.56,85.58,44.71,19.85,94.74,20.63,140.83,2.19,46.25-18.5,83-54.12,103.49-100.28h0c20.52-46.22,22.29-97.41,5-144.14-17.23-46.56-51.36-83.13-96.08-103a180.56,180.56,0,0,0-123-8.33,16.14,16.14,0,0,1-20.52-13.78c-11-101.48-74.68-189.74-166.11-230.32-96.19-42.71-208.44-27.68-292.93,39.2a16.17,16.17,0,0,1-18.79.91,167.93,167.93,0,0,0-23.33-12.51c-95.29-42.31-209.46,5.91-254.54,107.45-21.88,49.31-24.37,103.66-7,153,17.26,49,52.1,87.3,98.1,107.71a179.71,179.71,0,0,0,110.23,11.46,16.14,16.14,0,0,1,17.46,8.06c29.94,54.71,75.67,96.91,132.27,122,91.39,40.56,199.59,28.59,282.38-31.27A16.17,16.17,0,0,1,2428.69,1094.31Z" transform="translate(-750.65 -534.99)"/><path class="cls-2" d="M2496.28,1040.64c-2.85,6.86-5.94,13.06-9.29,19.38s-6.91,12.42-10.63,18.5a410.25,410.25,0,0,1-24.5,35.2l-.09.11a16.3,16.3,0,1,1-25.74-20,16.63,16.63,0,0,1,3-2.95A383.38,383.38,0,0,0,2459.5,1065c4.84-4.64,9.59-9.4,14.16-14.33s9.06-10.11,13-15.2l.2-.25a5.51,5.51,0,0,1,9.47,5.47Z" transform="translate(-750.65 -534.99)"/><path class="cls-2" d="M1978,931c1.16,6.3,2.82,13,4.63,19.43s3.89,12.87,6.09,19.2a385.92,385.92,0,0,0,15.36,37,16.29,16.29,0,0,1-29.4,14.06,15.8,15.8,0,0,1-1.29-3.9l0-.22a410.57,410.57,0,0,1-5.82-42.49c-.55-7.11-.93-14.21-1-21.31s0-14.09.54-21.49a5.52,5.52,0,0,1,10.93-.57Z" transform="translate(-750.65 -534.99)"/><path class="cls-2" d="M2747.17,2957.3l-3.88,10.43-4,11.18c-2.65,7.52-5.16,15.17-7.65,22.86-4.84,15.41-9.59,31.05-13.68,47s-7.61,32.15-10.7,48.56c-1.76,8.19-2.85,16.47-4.52,24.76-1.35,8.3-2.62,16.66-4.22,25.06l0,.09A2.16,2.16,0,0,1,2696,3149a2.19,2.19,0,0,1-1.74-1.81c-1.26-8.46-2.46-17-3.27-25.52-.63-8.54-1.36-17.13-1.51-25.73a417.64,417.64,0,0,1,1.87-51.8c1.86-17.25,4.43-34.58,9.1-51.53,1.15-4.24,2.32-8.47,3.78-12.65s2.81-8.37,4.51-12.49c1.54-4.16,3.46-8.22,5.37-12.3,1-2.05,2-4,3.14-6.08s2.22-3.86,3.77-6.37a15,15,0,0,1,26.77,13.09Z" transform="translate(-750.65 -534.99)"/><path class="cls-2" d="M1310.79,2942.68c1.55,2.51,2.64,4.27,3.78,6.37s2.12,4,3.14,6.08c1.9,4.08,3.82,8.14,5.36,12.3,1.7,4.12,3.17,8.29,4.51,12.49s2.63,8.41,3.78,12.65c4.68,16.95,7.25,34.28,9.11,51.53a419.58,419.58,0,0,1,1.86,51.8c-.15,8.6-.87,17.19-1.5,25.73-.82,8.55-2,17.06-3.28,25.52a2.17,2.17,0,0,1-4.27.09l0-.1c-1.59-8.4-2.86-16.76-4.21-25.06-1.68-8.29-2.77-16.57-4.53-24.76-3.09-16.41-6.7-32.6-10.69-48.56s-8.85-31.58-13.68-47c-2.5-7.69-5-15.34-7.66-22.86l-4-11.18-3.87-10.43-.57-1.52a15,15,0,0,1,26.76-13.1Z" transform="translate(-750.65 -534.99)"/><path class="cls-2" d="M1625.92,2354.37c.56,22.42-1,44.24-2.81,65.82-1,10.77-1.82,21.52-3.5,32a251.22,251.22,0,0,1-6.22,30.59l-.13.47a16.31,16.31,0,0,1-32-3.92c-.4-11.82,1.55-22.76,3.9-33.6s5.87-21.3,9.48-31.7,7.66-20.67,12-30.82a316.2,316.2,0,0,1,14.78-30,2.39,2.39,0,0,1,4.47,1.13Z" transform="translate(-750.65 -534.99)"/><path class="cls-2" d="M2428.11,2353.24a313.71,313.71,0,0,1,14.77,30c4.37,10.15,8.41,20.42,12,30.82s7.17,20.87,9.48,31.7,4.3,21.78,3.9,33.6a16.32,16.32,0,0,1-32,3.95l-.13-.5a249.34,249.34,0,0,1-6.22-30.59c-1.68-10.47-2.5-21.22-3.5-32-1.83-21.58-3.37-43.4-2.81-65.82a2.39,2.39,0,0,1,4.47-1.13Z" transform="translate(-750.65 -534.99)"/><path class="cls-13" d="M2215.72,2603.15l-15.95-.07a7.32,7.32,0,0,0-7,5.08l-4.88,15.19.07-15.95a7.3,7.3,0,0,0-5.09-7l-15.18-4.89,16,.08a7.34,7.34,0,0,0,7-5.09l4.88-15.19-.07,16a7.32,7.32,0,0,0,5.09,7Z" transform="translate(-750.65 -534.99)"/><path class="cls-13" d="M2081.51,2657l-14.8,2.28a6.86,6.86,0,0,0-5.74,5.75l-2.29,14.79-2.28-14.79a6.89,6.89,0,0,0-5.75-5.75l-14.79-2.28,14.79-2.29a6.89,6.89,0,0,0,5.75-5.75l2.28-14.79L2061,2649a6.86,6.86,0,0,0,5.74,5.75Z" transform="translate(-750.65 -534.99)"/><path class="cls-13" d="M1830,2633l-14.15,4.88a6.87,6.87,0,0,0-4.63,6.68l.38,15-4.88-14.15a6.89,6.89,0,0,0-6.68-4.63l-15,.39,14.15-4.88a6.88,6.88,0,0,0,4.63-6.68l-.39-15,4.88,14.15a6.9,6.9,0,0,0,6.68,4.63Z" transform="translate(-750.65 -534.99)"/><path class="cls-13" d="M1958.45,2583.27l-10.76,3a5.12,5.12,0,0,0-3.75,4.75l-.41,11.16-3-10.76a5.12,5.12,0,0,0-4.76-3.75l-11.15-.41,10.76-3a5.13,5.13,0,0,0,3.75-4.76l.41-11.15,3,10.76a5.12,5.12,0,0,0,4.75,3.75Z" transform="translate(-750.65 -534.99)"/><path class="cls-13" d="M2389.09,2638.45l-12.32.41a5.64,5.64,0,0,0-5.26,4.13l-3.33,11.88-.41-12.33a5.65,5.65,0,0,0-4.13-5.26l-11.88-3.33,12.32-.41a5.66,5.66,0,0,0,5.27-4.13l3.32-11.88.42,12.33a5.64,5.64,0,0,0,4.13,5.26Z" transform="translate(-750.65 -534.99)"/><path class="cls-13" d="M1665.88,2621l-10.74,3a5.13,5.13,0,0,0-3.74,4.77l-.35,11.16-3-10.74a5.13,5.13,0,0,0-4.77-3.74l-11.16-.35,10.74-3a5.13,5.13,0,0,0,3.74-4.77l.35-11.16,3,10.74a5.13,5.13,0,0,0,4.77,3.74Z" transform="translate(-750.65 -534.99)"/></svg>